<?xml version="1.0" encoding="UTF-8" standalone="no"?>
<!-- Created with Inkscape (http://www.inkscape.org/) -->

<svg
   xmlns:dc="http://purl.org/dc/elements/1.1/"
   xmlns:cc="http://creativecommons.org/ns#"
   xmlns:rdf="http://www.w3.org/1999/02/22-rdf-syntax-ns#"
   xmlns:svg="http://www.w3.org/2000/svg"
   xmlns="http://www.w3.org/2000/svg"
   version="1.1"
   width="247.39999"
   height="208.375"
   id="svg3690"
   xml:space="preserve"><metadata
     id="metadata3696"><rdf:RDF><cc:Work
         rdf:about=""><dc:format>image/svg+xml</dc:format><dc:type
           rdf:resource="http://purl.org/dc/dcmitype/StillImage" /><dc:title></dc:title></cc:Work></rdf:RDF></metadata><defs
     id="defs3694" /><g
     transform="matrix(1.25,0,0,-1.25,0,208.375)"
     id="g3698"><g
       transform="scale(0.1,0.1)"
       id="g3700"><path
         d="M 1893.72,619 C 1688.53,440.172 1504.54,334 1336.92,238.16 1037.66,67.0117 492.688,-71.7617 503.672,253.551 c 2.527,74.91 31.308,164.64 78.246,260.949 -13.988,15.551 -27.09,31.809 -39.16,48.832 C 365.59,136.07 597.051,-62.2305 944.871,17.1719 1298.25,97.8516 1678.62,343.141 1975.28,617.93 c 0,0 -79.96,-0.508 -81.56,1.07 z m -529.04,774.61 c 349.16,212.6 521.44,168.03 579.33,119.11 43.41,-36.7 6.55,-234.61 -170.98,-470.64 9.22,-28.44 15.63,-58.881 19.2,-91.264 1.48,2.043 3.01,3.996 4.5,6.055 283.59,394.259 246.17,760.769 -179.85,623.489 -129.91,-41.87 -261.09,-109.15 -386.31,-194.91 33.35,-3.83 65.91,-8.89 97.53,-15.22 12.36,8.24 24.58,16.07 36.58,23.38"
         id="path3702"
         style="fill:#1083cf;fill-opacity:1;fill-rule:nonzero;stroke:none" /><path
         d="m 1452.57,896.578 c -0.13,10.996 -0.76,21.817 -1.88,32.539 l 100.08,10.551 -30.84,16.148 171.5,18.008 -2.04,19.145 61.79,-27.5 -54.71,-39.746 -1.66,15.797 -122.98,-12.926 30.97,-16.235 -150.23,-15.781"
         id="path3704"
         style="fill:#1083cf;fill-opacity:1;fill-rule:nonzero;stroke:none" /><path
         d="m 1452.57,896.578 c -0.13,10.996 -0.76,21.817 -1.88,32.539 l 100.08,10.551 -30.84,16.148 171.5,18.008 -2.04,19.145 61.79,-27.5 -54.71,-39.746 -1.66,15.797 -122.98,-12.926 30.97,-16.235 -150.23,-15.781 z"
         id="path3706"
         style="fill:none;stroke:#1083cf;stroke-width:4.30600023;stroke-linecap:butt;stroke-linejoin:miter;stroke-miterlimit:4;stroke-opacity:1;stroke-dasharray:none" /><path
         d="m 1376.73,951.895 c -2.29,10.566 -5.18,21.035 -8.73,31.421 l 160.78,55.374 -33.65,8.83 163.02,56.13 -6.27,18.19 66.35,-12.9 -44.34,-51.03 -5.17,15.04 -116.91,-40.27 33.82,-8.83 -208.9,-71.955"
         id="path3708"
         style="fill:#1083cf;fill-opacity:1;fill-rule:nonzero;stroke:none" /><path
         d="m 1376.73,951.895 c -2.29,10.566 -5.18,21.035 -8.73,31.421 l 160.78,55.374 -33.65,8.83 163.02,56.13 -6.27,18.19 66.35,-12.9 -44.34,-51.03 -5.17,15.04 -116.91,-40.27 33.82,-8.83 -208.9,-71.955 z"
         id="path3710"
         style="fill:none;stroke:#1083cf;stroke-width:4.30600023;stroke-linecap:butt;stroke-linejoin:miter;stroke-miterlimit:4;stroke-opacity:1;stroke-dasharray:none" /><path
         d="m 619.91,1120.15 c 0,-22.42 18.188,-40.58 40.586,-40.58 22.426,0 40.609,18.16 40.609,40.58 0,22.42 -18.183,40.59 -40.609,40.59 -22.398,0 -40.586,-18.17 -40.586,-40.59"
         id="path3712"
         style="fill:#1083cf;fill-opacity:1;fill-rule:nonzero;stroke:none" /><path
         d="m 619.91,1120.15 c 0,-22.42 18.188,-40.58 40.586,-40.58 22.426,0 40.609,18.16 40.609,40.58 0,22.42 -18.183,40.59 -40.609,40.59 -22.398,0 -40.586,-18.17 -40.586,-40.59 z"
         id="path3714"
         style="fill:none;stroke:#1083cf;stroke-width:4.30600023;stroke-linecap:butt;stroke-linejoin:miter;stroke-miterlimit:4;stroke-opacity:1;stroke-dasharray:none" /><path
         d="m 540.105,937.77 c 0,-22.418 18.165,-40.582 40.586,-40.582 22.422,0 40.586,18.164 40.586,40.582 0,22.406 -18.164,40.585 -40.586,40.585 -22.421,0 -40.586,-18.179 -40.586,-40.585"
         id="path3716"
         style="fill:#1083cf;fill-opacity:1;fill-rule:nonzero;stroke:none" /><path
         d="m 540.105,937.77 c 0,-22.418 18.165,-40.582 40.586,-40.582 22.422,0 40.586,18.164 40.586,40.582 0,22.406 -18.164,40.585 -40.586,40.585 -22.421,0 -40.586,-18.179 -40.586,-40.585 z"
         id="path3718"
         style="fill:none;stroke:#1083cf;stroke-width:4.30600023;stroke-linecap:butt;stroke-linejoin:miter;stroke-miterlimit:4;stroke-opacity:1;stroke-dasharray:none" /><path
         d="m 619.48,661.309 c 0,-22.43 18.165,-40.61 40.571,-40.61 22.422,0 40.601,18.18 40.601,40.61 0,22.421 -18.179,40.586 -40.601,40.586 -22.406,0 -40.571,-18.165 -40.571,-40.586"
         id="path3720"
         style="fill:#1083cf;fill-opacity:1;fill-rule:nonzero;stroke:none" /><path
         d="m 619.48,661.309 c 0,-22.43 18.165,-40.61 40.571,-40.61 22.422,0 40.601,18.18 40.601,40.61 0,22.421 -18.179,40.586 -40.601,40.586 -22.406,0 -40.571,-18.165 -40.571,-40.586 z"
         id="path3722"
         style="fill:none;stroke:#1083cf;stroke-width:4.30600023;stroke-linecap:butt;stroke-linejoin:miter;stroke-miterlimit:4;stroke-opacity:1;stroke-dasharray:none" /><path
         d="m 994.91,801.68 220.328,0 0,29.0039 -220.328,0 0,-29.0039 z"
         id="path3724"
         style="fill:#1083cf;fill-opacity:1;fill-rule:nonzero;stroke:none" /><path
         d="m 1163.88,700.328 -58.79,101.817 -58.81,-101.852 54.44,0.019 0,-87.3 8.72,0 0,87.3 -4.36,0 58.8,0.016"
         id="path3726"
         style="fill:#1083cf;fill-opacity:1;fill-rule:nonzero;stroke:none" /><path
         d="m 1134.05,1239.38 c 4.49,-0.4 8.97,-0.83 13.42,-1.37 l -8.48,-69.03 c 26.27,-3.2 51.37,-10.05 74.86,-20.05 l 27.16,64.02 c 12.93,-5.51 25.54,-11.76 38.02,-18.95 12.43,-7.16 24.22,-15.02 35.42,-23.45 L 1272.6,1115 c 21.14,-15.88 39.08,-34.18 54.42,-54.55 l 55.55,41.83 c 8.45,-11.23 16.26,-22.94 23.44,-35.42 7.18,-12.43 13.46,-25.13 18.96,-38.01 l -64.02,-27.17 c 10.35,-24.336 16.95,-49.535 20.07,-74.825 l 69.01,8.457 c 1.7,-13.925 2.59,-27.992 2.6,-42.406 0,-14.351 -0.9,-28.472 -2.59,-42.383 l -69.04,8.481 c -3.18,-26.25 -10.42,-51.582 -20.42,-75.063 l 64.03,-27.168 c -5.5,-12.925 -11.75,-25.543 -18.95,-38.027 -7.19,-12.422 -15.03,-24.219 -23.44,-35.406 l -55.55,41.851 c -15.88,-21.129 -34.41,-39.429 -54.79,-54.785 l 41.85,-55.527 c -11.2,-8.457 -22.94,-16.27 -35.42,-23.457 -12.44,-7.184 -25.12,-13.473 -38,-18.942 l -27.18,64.02 c -24.33,-10.371 -49.17,-16.762 -74.48,-19.859 l 8.49,-69.02 c -13.96,-1.699 -28.02,-2.601 -42.41,-2.601 -14.37,0 -28.49,0.902 -42.42,2.601 l 8.49,69.039 c -26.24,3.16 -51.36,10.059 -74.831,20.039 l -27.18,-64.027 c -12.922,5.508 -25.559,11.738 -38.019,18.949 -12.442,7.188 -24.215,15.02 -35.426,23.438 l 41.863,55.562 c -21.035,15.805 -39.285,34.199 -54.602,54.453 L 827.219,683.34 c -7.348,9.781 -14.223,19.937 -20.637,30.664"
         id="path3728"
         style="fill:none;stroke:#1083cf;stroke-width:10;stroke-linecap:butt;stroke-linejoin:miter;stroke-miterlimit:4;stroke-opacity:1;stroke-dasharray:none" /><path
         d="m 961.992,1044.61 c -7.551,-18.22 -11.726,-38.18 -11.726,-59.126 0,-85.504 69.334,-154.8 154.824,-154.8 85.51,0 154.8,69.296 154.8,154.8 0,20.946 -4.17,40.906 -11.7,59.126 40.37,-38.07 65.63,-92.012 65.63,-151.895 0,-115.293 -93.47,-208.75 -208.73,-208.75 -115.293,0 -208.735,93.457 -208.735,208.75 0,59.883 25.239,113.825 65.637,151.895 z"
         id="path3730"
         style="fill:none;stroke:#1083cf;stroke-width:10;stroke-linecap:butt;stroke-linejoin:miter;stroke-miterlimit:4;stroke-opacity:1;stroke-dasharray:none" /><path
         d="m 1076.08,1137.54 0,213.14 57.97,0 0,-213.14 c 71.66,-13.56 125.84,-76.47 125.84,-152.056 0,-85.504 -69.29,-154.8 -154.8,-154.8 -85.49,0 -154.824,69.296 -154.824,154.8 0,75.586 54.194,138.496 125.814,152.056 z"
         id="path3732"
         style="fill:none;stroke:#1083cf;stroke-width:10;stroke-linecap:butt;stroke-linejoin:miter;stroke-miterlimit:4;stroke-opacity:1;stroke-dasharray:none" /><path
         d="m 1134.05,1350.68 0,-213.14 c 71.66,-13.56 125.84,-76.47 125.84,-152.056 0,-80.601 -61.62,-146.812 -140.31,-154.121 l 0,74.321 c 37.89,6.836 66.68,39.921 66.68,79.8 0,44.846 -36.35,81.176 -81.17,81.176 l 0,284.02 28.96,0"
         id="path3734"
         style="fill:#1083cf;fill-opacity:1;fill-rule:nonzero;stroke:none" /><path
         d="m 1287.79,791.641 c 5.21,9.429 9.72,19.351 13.48,29.746 l 224.97,-81.875 -20.62,28.047 162.03,-58.989 6.58,18.086 43.45,-51.797 -66.58,-11.718 5.42,14.921 -116.2,42.29 20.72,-28.164 -273.25,99.453"
         id="path3736"
         style="fill:#1083cf;fill-opacity:1;fill-rule:nonzero;stroke:none" /><path
         d="m 1287.79,791.641 c 5.21,9.429 9.72,19.351 13.48,29.746 l 224.97,-81.875 -20.62,28.047 162.03,-58.989 6.58,18.086 43.45,-51.797 -66.58,-11.718 5.42,14.921 -116.2,42.29 20.72,-28.164 -273.25,99.453 z"
         id="path3738"
         style="fill:none;stroke:#1083cf;stroke-width:4.30600023;stroke-linecap:butt;stroke-linejoin:miter;stroke-miterlimit:4;stroke-opacity:1;stroke-dasharray:none" /><path
         d="m 1305.84,835.328 c 2.96,10.371 5.15,21.059 6.45,32.016 l 237.59,-29.145 -26.37,22.68 171.14,-21.02 2.33,19.106 54.01,-40.703 -62.24,-26.426 1.92,15.777 -122.71,15.078 26.5,-22.808 -288.62,35.445"
         id="path3740"
         style="fill:#1083cf;fill-opacity:1;fill-rule:nonzero;stroke:none" /><path
         d="m 1305.84,835.328 c 2.96,10.371 5.15,21.059 6.45,32.016 l 237.59,-29.145 -26.37,22.68 171.14,-21.02 2.33,19.106 54.01,-40.703 -62.24,-26.426 1.92,15.777 -122.71,15.078 26.5,-22.808 -288.62,35.445 z"
         id="path3742"
         style="fill:none;stroke:#1083cf;stroke-width:4.30600023;stroke-linecap:butt;stroke-linejoin:miter;stroke-miterlimit:4;stroke-opacity:1;stroke-dasharray:none" /><path
         d="m 569.734,668.16 c 22.422,-38.808 157.5,-2.789 301.711,80.473 C 735.559,670.176 607.219,638.039 584.797,676.871 562.395,715.684 654.387,810.762 790.281,889.234 646.062,805.977 547.312,707.012 569.734,668.16 z m 307.7,266.289 c -22.231,-10.23 -45.293,-21.89 -68.696,-34.844 23.496,12.915 46.621,24.415 68.867,34.321 l -0.171,0.523 z m -68.696,-34.844 c -6.133,-3.359 -12.3,-6.812 -18.457,-10.371 6.157,3.559 12.324,6.996 18.457,10.371 z m 122.805,-113.32 c -18.777,-12.793 -38.898,-25.43 -60.098,-37.652 21.133,12.183 41.258,24.746 60.203,37.383 l -0.105,0.269"
         id="path3744"
         style="fill:#1083cf;fill-opacity:1;fill-rule:nonzero;stroke:none" /><path
         d="m 569.734,668.16 c 22.422,-38.808 157.5,-2.789 301.711,80.473 C 735.559,670.176 607.219,638.039 584.797,676.871 562.395,715.684 654.387,810.762 790.281,889.234 646.062,805.977 547.312,707.012 569.734,668.16 z m 307.7,266.289 c -22.231,-10.23 -45.293,-21.89 -68.696,-34.844 23.496,12.915 46.621,24.415 68.867,34.321 l -0.171,0.523 z m -68.696,-34.844 c -6.133,-3.359 -12.3,-6.812 -18.457,-10.371 6.157,3.559 12.324,6.996 18.457,10.371 z m 122.805,-113.32 c -18.777,-12.793 -38.898,-25.43 -60.098,-37.652 21.133,12.183 41.258,24.746 60.203,37.383 l -0.105,0.269 z"
         id="path3746"
         style="fill:none;stroke:#1083cf;stroke-width:5;stroke-linecap:butt;stroke-linejoin:miter;stroke-miterlimit:4;stroke-opacity:1;stroke-dasharray:none" /><path
         d="m 502.062,892.691 c 0,-44.8 135,-81.171 301.5,-81.171 -156.89,0 -284.097,36.371 -284.097,81.171 0,44.844 127.207,81.211 284.097,81.211 -166.5,0 -301.5,-36.367 -301.5,-81.211 z m 361.532,79.59 c -19.422,1.059 -39.485,1.621 -60.032,1.621 20.637,0 40.723,-0.664 60.098,-1.851 l -0.066,0.23 z m 56.133,-153.648 c -35.481,-4.555 -74.754,-7.113 -116.165,-7.113 41.282,0 80.618,2.25 116.465,6.292 l -0.3,0.821"
         id="path3748"
         style="fill:#1083cf;fill-opacity:1;fill-rule:nonzero;stroke:none" /><path
         d="m 502.062,892.691 c 0,-44.8 135,-81.171 301.5,-81.171 -156.89,0 -284.097,36.371 -284.097,81.171 0,44.844 127.207,81.211 284.097,81.211 -166.5,0 -301.5,-36.367 -301.5,-81.211 z m 361.532,79.59 c -19.422,1.059 -39.485,1.621 -60.032,1.621 20.637,0 40.723,-0.664 60.098,-1.851 l -0.066,0.23 z m 56.133,-153.648 c -35.481,-4.555 -74.754,-7.113 -116.165,-7.113 41.282,0 80.618,2.25 116.465,6.292 l -0.3,0.821 z"
         id="path3750"
         style="fill:none;stroke:#1083cf;stroke-width:5;stroke-linecap:butt;stroke-linejoin:miter;stroke-miterlimit:4;stroke-opacity:1;stroke-dasharray:none" /><path
         d="m 913.113,836.719 c -38.164,14.746 -80.117,34.824 -122.832,59.469 42.832,-24.723 84.848,-45.27 123.379,-60.934 l -0.547,1.465 z m -122.832,59.469 c -135.894,78.457 -227.886,173.542 -205.484,212.362 20.269,35.06 126.812,12.25 247.359,-50.25 l -0.047,0.16 c -128.679,67.56 -242.004,94.04 -262.375,58.78 -22.422,-38.82 76.328,-137.791 220.547,-221.052 z m 60.981,151.902 c 6.707,-3.66 13.426,-7.41 20.183,-11.29 -6.757,3.88 -13.476,7.65 -20.195,11.34 l 0.012,-0.05"
         id="path3752"
         style="fill:#1083cf;fill-opacity:1;fill-rule:nonzero;stroke:none" /><path
         d="m 913.113,836.719 c -38.164,14.746 -80.117,34.824 -122.832,59.469 42.832,-24.723 84.848,-45.27 123.379,-60.934 l -0.547,1.465 z m -122.832,59.469 c -135.894,78.457 -227.886,173.542 -205.484,212.362 20.269,35.06 126.812,12.25 247.359,-50.25 l -0.047,0.16 c -128.679,67.56 -242.004,94.04 -262.375,58.78 -22.422,-38.82 76.328,-137.791 220.547,-221.052 z m 60.981,151.902 c 6.707,-3.66 13.426,-7.41 20.183,-11.29 -6.757,3.88 -13.476,7.65 -20.195,11.34 l 0.012,-0.05 z"
         id="path3754"
         style="fill:none;stroke:#1083cf;stroke-width:5;stroke-linecap:butt;stroke-linejoin:miter;stroke-miterlimit:4;stroke-opacity:1;stroke-dasharray:none" /><path
         d="m 764.148,1216.21 340.942,-730.589 340.94,730.589 -300.57,-822.62 0,0 c -5.66,-16.871 -21.58,-29.039 -40.37,-29.039 -19.14,0 -35.33,12.578 -40.71,29.937 L 764.148,1216.21"
         id="path3756"
         style="fill:#1083cf;fill-opacity:1;fill-rule:nonzero;stroke:none" /><path
         d="m 764.148,1216.21 340.942,-730.589 340.94,730.589 -300.57,-822.62 0,0 c -5.66,-16.871 -21.58,-29.039 -40.37,-29.039 -19.14,0 -35.33,12.578 -40.71,29.937 L 764.148,1216.21 z"
         id="path3758"
         style="fill:none;stroke:#1083cf;stroke-width:5;stroke-linecap:butt;stroke-linejoin:miter;stroke-miterlimit:4;stroke-opacity:1;stroke-dasharray:none" /><path
         d="m 1151.47,1350.68 -92.79,0"
         id="path3760"
         style="fill:#1083cf;fill-opacity:1;fill-rule:nonzero;stroke:none" /><path
         d="m 1151.47,1350.68 -92.79,0"
         id="path3762"
         style="fill:none;stroke:#1083cf;stroke-width:10;stroke-linecap:butt;stroke-linejoin:miter;stroke-miterlimit:4;stroke-opacity:1;stroke-dasharray:none" /><path
         d="m 1105.09,904.312 0,-73.628"
         id="path3764"
         style="fill:none;stroke:#1083cf;stroke-width:10;stroke-linecap:butt;stroke-linejoin:miter;stroke-miterlimit:4;stroke-opacity:1;stroke-dasharray:none" /><path
         d="m 961.973,1044.61 c 19.668,47.52 62.337,83.12 114.107,92.93 l 0,101.84 c -4.48,-0.4 -8.95,-0.83 -13.39,-1.37 l 8.45,-69.03 c -25.31,-3.09 -50.51,-10.08 -74.831,-20.45 l -27.161,64.03 c -12.898,-5.49 -25.586,-11.78 -38.027,-18.97 -12.476,-7.19 -24.195,-15 -35.437,-23.44 l 41.875,-55.54 c -20.379,-15.35 -38.899,-33.65 -54.793,-54.79 l -55.532,41.86 c -0.214,-0.25 -5.691,-7.79 -5.886,-8.07 l 77.793,-166.676 c 8.82,47.461 33.398,89.926 62.832,117.676"
         id="path3766"
         style="fill:#1083cf;fill-opacity:1;fill-rule:nonzero;stroke:none" /><path
         d="m 961.973,1044.61 c 19.668,47.52 62.337,83.12 114.107,92.93 l 0,101.84 c -4.48,-0.4 -8.95,-0.83 -13.39,-1.37 l 8.45,-69.03 c -25.31,-3.09 -50.51,-10.08 -74.831,-20.45 l -27.161,64.03 c -12.898,-5.49 -25.586,-11.78 -38.027,-18.97 -12.476,-7.19 -24.195,-15 -35.437,-23.44 l 41.875,-55.54 c -20.379,-15.35 -38.899,-33.65 -54.793,-54.79 l -55.532,41.86 c -0.214,-0.25 -5.691,-7.79 -5.886,-8.07 l 77.793,-166.676 c 8.82,47.461 33.398,89.926 62.832,117.676 z"
         id="path3768"
         style="fill:none;stroke:#1083cf;stroke-width:4.30600023;stroke-linecap:butt;stroke-linejoin:miter;stroke-miterlimit:4;stroke-opacity:1;stroke-dasharray:none" /><path
         d="m 1522.23,586.781 -7.43,-10.929 -62.44,42.386 7.43,10.934 62.44,-42.391"
         id="path3770"
         style="fill:#1083cf;fill-opacity:1;fill-rule:nonzero;stroke:none" /><path
         d="m 1446.23,508.691 c 7.62,7.329 0.71,18.75 -10,29.848 -10.71,11.109 -21.87,18.402 -29.47,11.07 -7.61,-7.339 -0.72,-18.75 10,-29.859 10.72,-11.102 21.87,-18.398 29.47,-11.059 z m -46.44,48.141 c 15.29,14.746 33.44,2.168 45.11,-9.934 11.67,-12.089 23.6,-30.687 8.3,-45.437 -15.28,-14.75 -33.44,-2.172 -45.11,9.918 -11.66,12.101 -23.6,30.703 -8.3,45.453"
         id="path3772"
         style="fill:#1083cf;fill-opacity:1;fill-rule:nonzero;stroke:none" /><path
         d="m 1354.25,438.871 c 9.11,5.348 5.09,18.051 -2.73,31.359 -7.81,13.301 -16.95,23.02 -26.06,17.668 -9.11,-5.347 -5.09,-18.058 2.72,-31.367 7.82,-13.312 16.96,-23.019 26.07,-17.66 z m -33.88,57.68 c 18.32,10.758 33.03,-5.731 41.54,-20.223 8.51,-14.496 15.75,-35.367 -2.57,-46.129 -18.32,-10.75 -33.03,5.742 -41.55,20.231 -8.49,14.492 -15.74,35.371 2.58,46.121"
         id="path3774"
         style="fill:#1083cf;fill-opacity:1;fill-rule:nonzero;stroke:none" /><path
         d="m 1271.23,391.02 -12.54,-4.18 -23.89,71.59 12.54,4.179 23.89,-71.589"
         id="path3776"
         style="fill:#1083cf;fill-opacity:1;fill-rule:nonzero;stroke:none" /><path
         d="m 967.027,383.719 -12.617,3.902 22.348,72.09 12.621,-3.922 -22.352,-72.07"
         id="path3778"
         style="fill:#1083cf;fill-opacity:1;fill-rule:nonzero;stroke:none" /><path
         d="m 870.289,433.738 c 9.223,-5.16 18.149,4.742 25.68,18.223 7.527,13.469 11.289,26.258 2.062,31.418 -9.226,5.152 -18.152,-4.75 -25.683,-18.231 -7.524,-13.457 -11.286,-26.257 -2.059,-31.41 z m 32.641,58.403 c 18.547,-10.36 11.754,-31.391 3.554,-46.063 -8.199,-14.68 -22.554,-31.469 -41.093,-21.098 -18.543,10.36 -11.758,31.391 -3.559,46.051 8.203,14.668 22.555,31.481 41.098,21.11"
         id="path3780"
         style="fill:#1083cf;fill-opacity:1;fill-rule:nonzero;stroke:none" /><path
         d="m 776.797,501.672 c 7.754,-7.184 18.762,0.348 29.238,11.68 10.481,11.328 17.133,22.878 9.379,30.058 -7.758,7.172 -18.766,-0.371 -29.242,-11.691 -10.481,-11.321 -17.129,-22.867 -9.375,-30.047 z m 45.433,49.098 c 15.598,-14.418 4.059,-33.27 -7.351,-45.61 -11.41,-12.332 -29.313,-25.289 -44.899,-10.871 -15.593,14.43 -4.062,33.281 7.356,45.609 11.402,12.332 29.305,25.301 44.894,10.872"
         id="path3782"
         style="fill:#1083cf;fill-opacity:1;fill-rule:nonzero;stroke:none" /><path
         d="m 707.031,567.109 -7.656,10.77 61.516,43.711 7.644,-10.758 -61.504,-43.723"
         id="path3784"
         style="fill:#1083cf;fill-opacity:1;fill-rule:nonzero;stroke:none" /><path
         d="m 101.598,1662.84 85.808,0 -85.254,-301.49 -85.8082,0 85.2542,301.49"
         id="path3786"
         style="fill:#1083cf;fill-opacity:1;fill-rule:nonzero;stroke:none" /><path
         d="m 271,1457.41 c -3.875,-14.14 -17.168,-56.97 56.465,-56.97 46.504,0 80.273,16.63 87.473,42 7.742,26.61 -16.055,31.19 -64.219,40.34 -90.235,17.88 -136.192,39.08 -121.242,91.07 13.839,49.49 73.078,93.15 184.347,93.15 41.524,0 89.129,-7.07 110.723,-35.34 16.609,-21.63 9.961,-45.75 7.195,-55.73 l -82.488,0 c 1.66,10.4 7.195,45.75 -52.031,45.75 -39.864,0 -70.313,-16.22 -77.512,-40.76 -7.742,-27.87 19.934,-32.86 74.738,-43.67 65.879,-12.47 129.539,-26.61 112.938,-85.25 -14.949,-54.06 -87.469,-97.73 -198.192,-97.73 -153.351,0 -133.418,74.03 -125.664,103.14 l 87.469,0"
         id="path3788"
         style="fill:#1083cf;fill-opacity:1;fill-rule:nonzero;stroke:none" /><path
         d="m 624.742,1662.84 85.809,0 -85.254,-301.49 -85.809,0 85.254,301.49"
         id="path3790"
         style="fill:#1083cf;fill-opacity:1;fill-rule:nonzero;stroke:none" /><path
         d="m 830.121,1539.34 59.797,0 c 24.355,0 68.641,0 79.715,38.67 10.519,37.43 -31.551,37.43 -59.785,37.43 l -58.133,0 -21.594,-76.1 z m -36.531,-129.75 58.125,0 c 39.305,0 83.594,0 94.668,40.33 12.176,42.84 -39.309,42.84 -80.274,42.84 l -49.269,0 -23.25,-83.17 z m -11.074,252.01 149.472,0 c 23.25,0 68.092,0 94.672,-14.14 31.54,-17.47 31.54,-46.58 27.11,-64.04 -3.32,-11.23 -11.62,-30.78 -35.97,-44.92 -3.88,-2.5 -27.132,-15.8 -51.488,-20.38 l 0,-0.83 c 58.128,-8.32 72.518,-41.58 63.668,-73.19 -9.98,-35.34 -44.292,-59.05 -78.617,-70.69 -34.328,-12.06 -88.574,-12.06 -104.074,-12.06 l -149.473,0 84.7,300.25"
         id="path3792"
         style="fill:#1083cf;fill-opacity:1;fill-rule:nonzero;stroke:none" /><path
         d="m 28.6602,1302.71 12.9492,0 c 5.2773,0 14.875,0 17.2695,8.3 2.2813,8.03 -6.8398,8.03 -12.9531,8.03 l -12.586,0 -4.6796,-16.33 z m -7.918,-27.82 12.5976,0 c 8.5157,0 18.1055,0 20.5079,8.65 2.6367,9.18 -8.5157,9.18 -17.3907,9.18 l -10.6758,0 -5.039,-17.83 z m -2.3945,54.05 32.375,0 c 5.039,0 14.7539,0 20.5078,-3.04 6.8359,-3.74 6.8359,-9.99 5.8789,-13.73 -0.7227,-2.41 -2.5196,-6.6 -7.793,-9.64 -0.8398,-0.53 -5.8789,-3.39 -11.1523,-4.36 l 0,-0.19 c 12.5898,-1.78 15.7031,-8.91 13.789,-15.69 -2.1601,-7.59 -9.6015,-12.67 -17.0312,-15.17 -7.4336,-2.58 -19.1914,-2.58 -22.5508,-2.58 l -32.3711,0 18.3477,64.4"
         id="path3794"
         style="fill:#1083cf;fill-opacity:1;fill-rule:nonzero;stroke:none" /><path
         d="m 146.301,1298.52 c 0.594,2.14 2.039,8.65 2.39,11.24 l 16.668,0 -2.156,-8.65 c 3.359,3.84 8.875,9.27 23.145,8.74 l -3.36,-11.87 c -17.629,1.25 -20.742,-5.61 -22.304,-11.24 l -6.348,-22.2 -17.754,0 9.719,33.98"
         id="path3796"
         style="fill:#1083cf;fill-opacity:1;fill-rule:nonzero;stroke:none" /><path
         d="m 265.613,1309.58 -7.675,-26.85 c -1.083,-3.93 -2.762,-9.91 6.71,-9.91 11.399,0 13.196,6.34 15.352,14.02 l 6.477,22.74 18.23,0 -8.398,-29.7 c -2.637,-9.73 -2.754,-10.88 -3.118,-12.04 -0.242,-1.25 -0.359,-2.05 -0.476,-3.3 l -17.266,0 1.074,5.97 c -2.277,-1.96 -8.398,-7.14 -19.902,-7.14 -8.152,0 -14.031,2.77 -16.433,6.07 -3,3.66 -1.196,9.9 -0.481,12.13 l 7.922,28.01 17.984,0"
         id="path3798"
         style="fill:#1083cf;fill-opacity:1;fill-rule:nonzero;stroke:none" /><path
         d="m 393.562,1309.58 7.2,-14.71 16.074,14.71 18.469,0 -25.91,-21.94 13.671,-23.1 -20.988,0 -7.547,16.5 -17.031,-16.5 -18.582,0 27.215,24.16 -13.555,20.88 20.984,0"
         id="path3800"
         style="fill:#1083cf;fill-opacity:1;fill-rule:nonzero;stroke:none" /><path
         d="m 531.465,1292 c 0.605,2.05 2.637,10.08 -7.676,10.08 -7.793,0 -12.351,-4.81 -14.269,-10.08 l 21.945,0 z m -24.824,-8.29 c -0.84,-2.94 -3.477,-12.04 8.879,-12.04 4.429,0 9.226,1.25 12.351,6.24 l 16.191,0 c -0.839,-2.14 -2.519,-5.97 -8.515,-9.81 -5.52,-3.48 -13.914,-5.26 -22.781,-5.26 -5.161,0 -14.758,0.72 -19.797,5.62 -4.192,4.28 -4.793,10.34 -2.754,17.57 2.156,7.31 6.953,16.05 18.711,21.32 5.39,2.32 11.504,3.75 18.105,3.75 8.633,0 18.223,-2.5 21.348,-10.88 2.273,-6.17 0.234,-12.77 -1.082,-16.51 l -40.656,0"
         id="path3802"
         style="fill:#1083cf;fill-opacity:1;fill-rule:nonzero;stroke:none" /><path
         d="m 628.953,1329.03 17.758,0 -18.469,-64.49 -17.754,0 18.465,64.49"
         id="path3804"
         style="fill:#1083cf;fill-opacity:1;fill-rule:nonzero;stroke:none" /><path
         d="m 719.258,1329.03 17.754,0 -18.465,-64.49 -17.754,0 18.465,64.49"
         id="path3806"
         style="fill:#1083cf;fill-opacity:1;fill-rule:nonzero;stroke:none" /><path
         d="m 835.691,1292 c 0.61,2.05 2.637,10.08 -7.671,10.08 -7.793,0 -12.356,-4.81 -14.27,-10.08 l 21.941,0 z m -24.824,-8.29 c -0.84,-2.94 -3.472,-12.04 8.879,-12.04 4.434,0 9.238,1.25 12.356,6.24 l 16.179,0 c -0.832,-2.14 -2.511,-5.97 -8.508,-9.81 -5.515,-3.48 -13.914,-5.26 -22.781,-5.26 -5.156,0 -14.758,0.72 -19.797,5.62 -4.187,4.28 -4.793,10.34 -2.754,17.57 2.161,7.31 6.954,16.05 18.711,21.32 5.395,2.32 11.504,3.75 18.11,3.75 8.633,0 18.218,-2.5 21.343,-10.88 2.278,-6.17 0.239,-12.77 -1.082,-16.51 l -40.656,0"
         id="path3808"
         style="fill:#1083cf;fill-opacity:1;fill-rule:nonzero;stroke:none" /><path
         d="m 930.793,1277.56 c -0.605,-2.86 0.84,-6.16 8.269,-6.16 6.36,0 10.196,2.67 10.911,5.35 0.601,2.05 -0.356,3.66 -6.953,5.09 l -10.317,2.23 c -4.676,1.07 -14.512,3.3 -11.875,12.48 2.524,8.75 14.875,14.1 30.59,14.1 12.469,0 21.336,-4.28 19.18,-13.29 l -16.184,0 c 0.481,2.5 -0.605,3.84 -2.156,4.55 -1.567,0.71 -3.481,0.8 -4.922,0.8 -4.797,0 -8.867,-1.69 -9.707,-4.46 -0.844,-3.03 2.027,-3.66 6.949,-4.72 l 10.317,-2.24 c 10.308,-2.22 14.265,-6.41 12.585,-12.58 -2.277,-7.75 -13.425,-15.51 -32.253,-15.51 -7.793,0 -14.875,1.25 -19.192,5.52 -3.113,3.13 -2.39,6.69 -1.914,8.84 l 16.672,0"
         id="path3810"
         style="fill:#1083cf;fill-opacity:1;fill-rule:nonzero;stroke:none" /></g></g></svg>