<?xml version="1.0" encoding="UTF-8" standalone="no"?>
<svg
   xmlns:dc="http://purl.org/dc/elements/1.1/"
   xmlns:cc="http://creativecommons.org/ns#"
   xmlns:rdf="http://www.w3.org/1999/02/22-rdf-syntax-ns#"
   xmlns:svg="http://www.w3.org/2000/svg"
   xmlns="http://www.w3.org/2000/svg"
   xmlns:xlink="http://www.w3.org/1999/xlink"
   xmlns:sodipodi="http://sodipodi.sourceforge.net/DTD/sodipodi-0.dtd"
   xmlns:inkscape="http://www.inkscape.org/namespaces/inkscape"
   width="748pt"
   version="1.1"
   height="1526pt"
   viewBox="0 0 748 1526"
   id="svg11357"
   inkscape:version="0.48.0 r9654"
   sodipodi:docname="Gabarit_crearoll_85x200_Final_RVB-page001.svg">
  <metadata
     id="metadata12530">
    <rdf:RDF>
      <cc:Work
         rdf:about="">
        <dc:format>image/svg+xml</dc:format>
        <dc:type
           rdf:resource="http://purl.org/dc/dcmitype/StillImage" />
        <dc:title></dc:title>
      </cc:Work>
    </rdf:RDF>
  </metadata>
  <sodipodi:namedview
     pagecolor="#ffffff"
     bordercolor="#666666"
     borderopacity="1"
     objecttolerance="10"
     gridtolerance="10"
     guidetolerance="10"
     inkscape:pageopacity="0"
     inkscape:pageshadow="2"
     inkscape:window-width="1280"
     inkscape:window-height="723"
     id="namedview12528"
     showgrid="false"
     inkscape:zoom="0.53892529"
     inkscape:cx="60.252189"
     inkscape:cy="1355.0918"
     inkscape:window-x="0"
     inkscape:window-y="24"
     inkscape:window-maximized="1"
     inkscape:current-layer="svg11357" />
  <defs
     id="defs11359">
    <radialGradient
       cx="232.162"
       cy="227.489"
       id="Grad0"
       r="173.143"
       gradientUnits="userSpaceOnUse">
      <stop
         offset="22%"
         stop-color="#d1d9ec"
         stop-opacity="1"
         id="stop11362" />
      <stop
         offset="94.7368%"
         stop-color="#8fa5d2"
         stop-opacity="1"
         id="stop11364" />
    </radialGradient>
    <path
       id="GlBitstreamVeraSans-Bold65"
       d="M5.34187 8.67188 L2.40234 8.67188 L1.93844 10 L0.0489062 10 L2.74906 2.71 L4.99031 2.71 L7.69047 10 L5.80078 10 L5.34187 8.67188 L5.34187 8.67188 Z M2.87109 7.31937 L4.86813 7.31937 L3.87203 4.41891 L2.87109 7.31937 Z" />
    <path
       id="GlBitstreamVeraSans-Bold115"
       d="M5.11234 4.70219 L5.11234 6.03031 C5.11234 6.03031 4.55078 5.79594 4.02828 5.67875 C4.02828 5.67875 3.50594 5.56156 3.04203 5.56156 C3.04203 5.56156 2.54391 5.56156 2.30219 5.68609 C2.30219 5.68609 2.06062 5.81047 2.06062 6.06937 C2.06062 6.06937 2.06062 6.27922 2.24359 6.39156 C2.24359 6.39156 2.42672 6.50391 2.90047 6.55766 L3.20797 6.60156 C3.20797 6.60156 4.55078 6.7725 5.01469 7.16312 C5.01469 7.16312 5.47859 7.55375 5.47859 8.38859 C5.47859 8.38859 5.47859 9.26266 4.83406 9.70219 C4.83406 9.70219 4.18953 10.1416 2.91016 10.1416 C2.91016 10.1416 2.36813 10.1416 1.78953 10.0561 C1.78953 10.0561 1.21094 9.97063 0.600625 9.79984 L0.600625 8.47172 C0.600625 8.47172 1.12312 8.72563 1.67234 8.85266 C1.67234 8.85266 2.22172 8.97953 2.78812 8.97953 C2.78812 8.97953 3.30078 8.97953 3.55953 8.83797 C3.55953 8.83797 3.81844 8.69625 3.81844 8.41797 C3.81844 8.41797 3.81844 8.18359 3.64016 8.06891 C3.64016 8.06891 3.46188 7.95406 2.92969 7.89062 L2.62203 7.85156 C2.62203 7.85156 1.45516 7.705 0.986406 7.30953 C0.986406 7.30953 0.517656 6.91406 0.517656 6.10844 C0.517656 6.10844 0.517656 5.23922 1.11328 4.81937 C1.11328 4.81937 1.70906 4.39938 2.93953 4.39938 C2.93953 4.39938 3.42281 4.39938 3.955 4.47266 C3.955 4.47266 4.48734 4.54594 5.11234 4.70219 Z" />
    <path
       id="GlBitstreamVeraSans-Bold111"
       d="M3.44234 5.64938 C3.44234 5.64938 2.86141 5.64938 2.55609 6.06687 C2.55609 6.06687 2.25094 6.48438 2.25094 7.27047 C2.25094 7.27047 2.25094 8.05656 2.55609 8.47406 C2.55609 8.47406 2.86141 8.89156 3.44234 8.89156 C3.44234 8.89156 4.01375 8.89156 4.31641 8.47406 C4.31641 8.47406 4.61922 8.05656 4.61922 7.27047 C4.61922 7.27047 4.61922 6.48438 4.31641 6.06687 C4.31641 6.06687 4.01375 5.64938 3.44234 5.64938 L3.44234 5.64938 Z M3.44234 4.39938 C3.44234 4.39938 4.85359 4.39938 5.64703 5.16109 C5.64703 5.16109 6.44047 5.92281 6.44047 7.27047 C6.44047 7.27047 6.44047 8.61812 5.64703 9.37984 C5.64703 9.37984 4.85359 10.1416 3.44234 10.1416 C3.44234 10.1416 2.02641 10.1416 1.22797 9.37984 C1.22797 9.37984 0.429688 8.61812 0.429688 7.27047 C0.429688 7.27047 0.429688 5.92281 1.22797 5.16109 C1.22797 5.16109 2.02641 4.39938 3.44234 4.39938 Z" />
    <path
       id="GlBitstreamVeraSans-Bold99"
       d="M5.25875 4.70219 L5.25875 6.12797 C5.25875 6.12797 4.90234 5.88375 4.54344 5.76656 C4.54344 5.76656 4.18453 5.64938 3.79891 5.64938 C3.79891 5.64938 3.06641 5.64938 2.65859 6.07672 C2.65859 6.07672 2.25094 6.50391 2.25094 7.27047 C2.25094 7.27047 2.25094 8.03703 2.65859 8.46438 C2.65859 8.46438 3.06641 8.89156 3.79891 8.89156 C3.79891 8.89156 4.20906 8.89156 4.57766 8.76953 C4.57766 8.76953 4.94625 8.6475 5.25875 8.40813 L5.25875 9.83891 C5.25875 9.83891 4.84859 9.99016 4.42625 10.0658 C4.42625 10.0658 4.00391 10.1416 3.57906 10.1416 C3.57906 10.1416 2.09969 10.1416 1.26469 9.38234 C1.26469 9.38234 0.429688 8.62297 0.429688 7.27047 C0.429688 7.27047 0.429688 5.91797 1.26469 5.15875 C1.26469 5.15875 2.09969 4.39938 3.57906 4.39938 C3.57906 4.39938 4.00875 4.39938 4.42625 4.47516 C4.42625 4.47516 4.84375 4.55078 5.25875 4.70219 Z" />
    <path
       id="GlBitstreamVeraSans-Bold105"
       d="M0.839844 4.53125 L2.58797 4.53125 L2.58797 10 L0.839844 10 L0.839844 4.53125 L0.839844 4.53125 Z M0.839844 2.40234 L2.58797 2.40234 L2.58797 3.82812 L0.839844 3.82812 L0.839844 2.40234 Z" />
    <path
       id="GlBitstreamVeraSans-Bold97"
       d="M3.29109 7.53906 C3.29109 7.53906 2.74422 7.53906 2.46828 7.72469 C2.46828 7.72469 2.19234 7.91016 2.19234 8.27141 C2.19234 8.27141 2.19234 8.60344 2.41453 8.79156 C2.41453 8.79156 2.63672 8.97953 3.03219 8.97953 C3.03219 8.97953 3.52547 8.97953 3.86234 8.62547 C3.86234 8.62547 4.19922 8.27141 4.19922 7.73922 L4.19922 7.53906 L3.29109 7.53906 L3.29109 7.53906 Z M5.96188 6.87984 L5.96188 10 L4.19922 10 L4.19922 9.18938 C4.19922 9.18938 3.84766 9.6875 3.40813 9.91453 C3.40813 9.91453 2.96875 10.1416 2.33891 10.1416 C2.33891 10.1416 1.48922 10.1416 0.959375 9.64594 C0.959375 9.64594 0.429688 9.15031 0.429688 8.35938 C0.429688 8.35938 0.429688 7.3975 1.09125 6.94828 C1.09125 6.94828 1.75297 6.49906 3.16891 6.49906 L4.19922 6.49906 L4.19922 6.36234 C4.19922 6.36234 4.19922 5.94719 3.87203 5.75437 C3.87203 5.75437 3.545 5.56156 2.85156 5.56156 C2.85156 5.56156 2.29 5.56156 1.80656 5.67391 C1.80656 5.67391 1.32328 5.78609 0.908281 6.01078 L0.908281 4.67766 C0.908281 4.67766 1.46969 4.54094 2.03609 4.47016 C2.03609 4.47016 2.6025 4.39938 3.16891 4.39938 C3.16891 4.39938 4.64844 4.39938 5.30516 4.98297 C5.30516 4.98297 5.96188 5.56641 5.96188 6.87984 Z" />
    <path
       id="GlBitstreamVeraSans-Bold116"
       d="M2.74906 2.97844 L2.74906 4.53125 L4.55078 4.53125 L4.55078 5.78125 L2.74906 5.78125 L2.74906 8.10063 C2.74906 8.10063 2.74906 8.48141 2.90031 8.61578 C2.90031 8.61578 3.05172 8.75 3.50094 8.75 L4.39938 8.75 L4.39938 10 L2.90047 10 C2.90047 10 1.86531 10 1.43312 9.56797 C1.43312 9.56797 1.00094 9.13578 1.00094 8.10063 L1.00094 5.78125 L0.131875 5.78125 L0.131875 4.53125 L1.00094 4.53125 L1.00094 2.97844 L2.74906 2.97844 Z" />
    <path
       id="GlBitstreamVeraSans-Bold110"
       d="M6.33797 6.66984 L6.33797 10 L4.58016 10 L4.58016 9.45797 L4.58016 7.45109 C4.58016 7.45109 4.58016 6.74313 4.54828 6.47469 C4.54828 6.47469 4.51656 6.20609 4.43844 6.07906 C4.43844 6.07906 4.33594 5.90813 4.16016 5.81297 C4.16016 5.81297 3.98438 5.71781 3.75984 5.71781 C3.75984 5.71781 3.21297 5.71781 2.90047 6.14016 C2.90047 6.14016 2.58797 6.5625 2.58797 7.30953 L2.58797 10 L0.839844 10 L0.839844 4.53125 L2.58797 4.53125 L2.58797 5.33203 C2.58797 5.33203 2.98344 4.85344 3.42766 4.62641 C3.42766 4.62641 3.87203 4.39938 4.40922 4.39938 C4.40922 4.39938 5.35641 4.39938 5.84719 4.98047 C5.84719 4.98047 6.33797 5.56156 6.33797 6.66984 Z" />
    <path
       id="GlBitstreamVeraSans-Bold70"
       d="M0.917969 2.71 L5.99125 2.71 L5.99125 4.13078 L2.79781 4.13078 L2.79781 5.48828 L5.80078 5.48828 L5.80078 6.90922 L2.79781 6.90922 L2.79781 10 L0.917969 10 L0.917969 2.71 Z" />
    <path
       id="GlBitstreamVeraSans-Bold114"
       d="M4.90234 6.02047 C4.90234 6.02047 4.67281 5.91312 4.44578 5.86187 C4.44578 5.86187 4.21875 5.81047 3.98922 5.81047 C3.98922 5.81047 3.31547 5.81047 2.95172 6.24266 C2.95172 6.24266 2.58797 6.67484 2.58797 7.48047 L2.58797 10 L0.839844 10 L0.839844 4.53125 L2.58797 4.53125 L2.58797 5.42969 C2.58797 5.42969 2.92484 4.8925 3.36187 4.64594 C3.36187 4.64594 3.79891 4.39938 4.40922 4.39938 C4.40922 4.39938 4.49703 4.39938 4.59953 4.40672 C4.59953 4.40672 4.70219 4.41406 4.8975 4.43844 L4.90234 6.02047 Z" />
    <path
       id="GlBitstreamVeraSans-Bold112"
       d="M2.58797 9.20891 L2.58797 12.0802 L0.839844 12.0802 L0.839844 4.53125 L2.58797 4.53125 L2.58797 5.33203 C2.58797 5.33203 2.94922 4.85344 3.38859 4.62641 C3.38859 4.62641 3.82812 4.39938 4.39938 4.39938 C4.39938 4.39938 5.41016 4.39938 6.05953 5.20266 C6.05953 5.20266 6.70906 6.00578 6.70906 7.27047 C6.70906 7.27047 6.70906 8.53516 6.05953 9.33844 C6.05953 9.33844 5.41016 10.1416 4.39938 10.1416 C4.39938 10.1416 3.82812 10.1416 3.38859 9.91453 C3.38859 9.91453 2.94922 9.6875 2.58797 9.20891 L2.58797 9.20891 Z M3.75 5.66891 C3.75 5.66891 3.18844 5.66891 2.88813 6.08156 C2.88813 6.08156 2.58797 6.49406 2.58797 7.27047 C2.58797 7.27047 2.58797 8.04688 2.88813 8.45953 C2.88813 8.45953 3.18844 8.87203 3.75 8.87203 C3.75 8.87203 4.31156 8.87203 4.60688 8.46187 C4.60688 8.46187 4.90234 8.05172 4.90234 7.27047 C4.90234 7.27047 4.90234 6.48922 4.60688 6.07906 C4.60688 6.07906 4.31156 5.66891 3.75 5.66891 Z" />
    <path
       id="GlBitstreamVeraSans-Bold104"
       d="M6.33797 6.66984 L6.33797 10 L4.58016 10 L4.58016 9.45797 L4.58016 7.46094 C4.58016 7.46094 4.58016 6.74313 4.54828 6.47469 C4.54828 6.47469 4.51656 6.20609 4.43844 6.07906 C4.43844 6.07906 4.33594 5.90813 4.16016 5.81297 C4.16016 5.81297 3.98438 5.71781 3.75984 5.71781 C3.75984 5.71781 3.21297 5.71781 2.90047 6.14016 C2.90047 6.14016 2.58797 6.5625 2.58797 7.30953 L2.58797 10 L0.839844 10 L0.839844 2.40234 L2.58797 2.40234 L2.58797 5.33203 C2.58797 5.33203 2.98344 4.85344 3.42766 4.62641 C3.42766 4.62641 3.87203 4.39938 4.40922 4.39938 C4.40922 4.39938 5.35641 4.39938 5.84719 4.98047 C5.84719 4.98047 6.33797 5.56156 6.33797 6.66984 Z" />
    <path
       id="GlBitstreamVeraSans-Bold101"
       d="M6.29891 7.25094 L6.29891 7.74906 L2.21188 7.74906 C2.21188 7.74906 2.27547 8.36422 2.65625 8.67188 C2.65625 8.67188 3.03719 8.97953 3.72078 8.97953 C3.72078 8.97953 4.2725 8.97953 4.85109 8.81594 C4.85109 8.81594 5.42969 8.65234 6.04 8.32031 L6.04 9.66797 C6.04 9.66797 5.42 9.90234 4.79984 10.0219 C4.79984 10.0219 4.17969 10.1416 3.55953 10.1416 C3.55953 10.1416 2.07516 10.1416 1.25234 9.38719 C1.25234 9.38719 0.429688 8.63281 0.429688 7.27047 C0.429688 7.27047 0.429688 5.93266 1.23781 5.16609 C1.23781 5.16609 2.04594 4.39938 3.46188 4.39938 C3.46188 4.39938 4.75094 4.39938 5.52484 5.17578 C5.52484 5.17578 6.29891 5.95219 6.29891 7.25094 L6.29891 7.25094 Z M4.50203 6.66984 C4.50203 6.66984 4.50203 6.17188 4.21141 5.86672 C4.21141 5.86672 3.92094 5.56156 3.45219 5.56156 C3.45219 5.56156 2.94437 5.56156 2.62688 5.84719 C2.62688 5.84719 2.30953 6.13281 2.23141 6.66984 L4.50203 6.66984 Z" />
    <path
       id="GlBitstreamVeraSans-Bold100"
       d="M4.56062 5.33203 L4.56062 2.40234 L6.31844 2.40234 L6.31844 10 L4.56062 10 L4.56062 9.20891 C4.56062 9.20891 4.19922 9.69234 3.76469 9.91703 C3.76469 9.91703 3.33016 10.1416 2.75875 10.1416 C2.75875 10.1416 1.74812 10.1416 1.09859 9.33844 C1.09859 9.33844 0.449219 8.53516 0.449219 7.27047 C0.449219 7.27047 0.449219 6.00578 1.09859 5.20266 C1.09859 5.20266 1.74812 4.39938 2.75875 4.39938 C2.75875 4.39938 3.32516 4.39938 3.76219 4.62641 C3.76219 4.62641 4.19922 4.85344 4.56062 5.33203 L4.56062 5.33203 Z M3.40828 8.87203 C3.40828 8.87203 3.96969 8.87203 4.26516 8.46187 C4.26516 8.46187 4.56062 8.05172 4.56062 7.27047 C4.56062 7.27047 4.56062 6.48922 4.26516 6.07906 C4.26516 6.07906 3.96969 5.66891 3.40828 5.66891 C3.40828 5.66891 2.85156 5.66891 2.55609 6.07906 C2.55609 6.07906 2.26078 6.48922 2.26078 7.27047 C2.26078 7.27047 2.26078 8.05172 2.55609 8.46187 C2.55609 8.46187 2.85156 8.87203 3.40828 8.87203 Z" />
    <path
       id="GlBitstreamVeraSans-Bold85"
       d="M0.917969 2.71 L2.79781 2.71 L2.79781 7.08 C2.79781 7.08 2.79781 7.98344 3.09328 8.37156 C3.09328 8.37156 3.38875 8.75969 4.05766 8.75969 C4.05766 8.75969 4.73141 8.75969 5.02688 8.37156 C5.02688 8.37156 5.32234 7.98344 5.32234 7.08 L5.32234 2.71 L7.20219 2.71 L7.20219 7.08 C7.20219 7.08 7.20219 8.62797 6.42578 9.38484 C6.42578 9.38484 5.64938 10.1416 4.05766 10.1416 C4.05766 10.1416 2.47078 10.1416 1.69437 9.38484 C1.69437 9.38484 0.917969 8.62797 0.917969 7.08 L0.917969 2.71 Z" />
    <path
       id="GlBitstreamVeraSans-Bold108"
       d="M0.839844 2.40234 L2.58797 2.40234 L2.58797 10 L0.839844 10 L0.839844 2.40234 Z" />
    <path
       id="GlBitstreamVeraSans-Bold117"
       d="M0.78125 7.87109 L0.78125 4.53125 L2.53906 4.53125 L2.53906 5.07812 C2.53906 5.07812 2.53906 5.5225 2.53422 6.19391 C2.53422 6.19391 2.52937 6.86516 2.52937 7.08984 C2.52937 7.08984 2.52937 7.74906 2.56344 8.03953 C2.56344 8.03953 2.59766 8.33 2.68063 8.46187 C2.68063 8.46187 2.78812 8.63281 2.96141 8.72563 C2.96141 8.72563 3.13484 8.81828 3.35938 8.81828 C3.35938 8.81828 3.90625 8.81828 4.21875 8.39844 C4.21875 8.39844 4.53125 7.97844 4.53125 7.23141 L4.53125 4.53125 L6.27937 4.53125 L6.27937 10 L4.53125 10 L4.53125 9.20891 C4.53125 9.20891 4.13578 9.6875 3.69391 9.91453 C3.69391 9.91453 3.25203 10.1416 2.71969 10.1416 C2.71969 10.1416 1.7725 10.1416 1.27687 9.56062 C1.27687 9.56062 0.78125 8.97953 0.78125 7.87109 Z" />
    <path
       id="GlBitstreamVeraSans-Bold76"
       d="M0.917969 2.71 L2.79781 2.71 L2.79781 8.57906 L6.09859 8.57906 L6.09859 10 L0.917969 10 L0.917969 2.71 Z" />
    <path
       id="GlBitstreamVeraSans-Bold103"
       d="M4.56062 9.07219 C4.56062 9.07219 4.19922 9.55078 3.76469 9.77547 C3.76469 9.77547 3.33016 10 2.75875 10 C2.75875 10 1.75781 10 1.10344 9.21141 C1.10344 9.21141 0.449219 8.42281 0.449219 7.20219 C0.449219 7.20219 0.449219 5.97656 1.10344 5.19297 C1.10344 5.19297 1.75781 4.40922 2.75875 4.40922 C2.75875 4.40922 3.33016 4.40922 3.76469 4.63391 C3.76469 4.63391 4.19922 4.85844 4.56062 5.34172 L4.56062 4.53125 L6.31844 4.53125 L6.31844 9.44828 C6.31844 9.44828 6.31844 10.7666 5.48578 11.4623 C5.48578 11.4623 4.65328 12.1583 3.07125 12.1583 C3.07125 12.1583 2.55859 12.1583 2.08 12.0802 C2.08 12.0802 1.60156 12.002 1.11813 11.8408 L1.11813 10.4786 C1.11813 10.4786 1.57719 10.7422 2.01656 10.8716 C2.01656 10.8716 2.45609 11.0009 2.90047 11.0009 C2.90047 11.0009 3.75984 11.0009 4.16016 10.625 C4.16016 10.625 4.56062 10.2491 4.56062 9.44828 L4.56062 9.07219 L4.56062 9.07219 Z M3.40828 5.66891 C3.40828 5.66891 2.86625 5.66891 2.56344 6.06937 C2.56344 6.06937 2.26078 6.46969 2.26078 7.20219 C2.26078 7.20219 2.26078 7.95406 2.55375 8.34234 C2.55375 8.34234 2.84672 8.73047 3.40828 8.73047 C3.40828 8.73047 3.95516 8.73047 4.25781 8.33016 C4.25781 8.33016 4.56062 7.92969 4.56062 7.20219 C4.56062 7.20219 4.56062 6.46969 4.25781 6.06937 C4.25781 6.06937 3.95516 5.66891 3.40828 5.66891 Z" />
    <path
       id="GlBitstreamVeraSans-Bold98"
       d="M3.75 8.87203 C3.75 8.87203 4.31156 8.87203 4.60688 8.46187 C4.60688 8.46187 4.90234 8.05172 4.90234 7.27047 C4.90234 7.27047 4.90234 6.48922 4.60688 6.07906 C4.60688 6.07906 4.31156 5.66891 3.75 5.66891 C3.75 5.66891 3.18844 5.66891 2.88813 6.08156 C2.88813 6.08156 2.58797 6.49406 2.58797 7.27047 C2.58797 7.27047 2.58797 8.04688 2.88813 8.45953 C2.88813 8.45953 3.18844 8.87203 3.75 8.87203 L3.75 8.87203 Z M2.58797 5.33203 C2.58797 5.33203 2.94922 4.85344 3.38859 4.62641 C3.38859 4.62641 3.82812 4.39938 4.39938 4.39938 C4.39938 4.39938 5.41016 4.39938 6.05953 5.20266 C6.05953 5.20266 6.70906 6.00578 6.70906 7.27047 C6.70906 7.27047 6.70906 8.53516 6.05953 9.33844 C6.05953 9.33844 5.41016 10.1416 4.39938 10.1416 C4.39938 10.1416 3.82812 10.1416 3.38859 9.91453 C3.38859 9.91453 2.94922 9.6875 2.58797 9.20891 L2.58797 10 L0.839844 10 L0.839844 2.40234 L2.58797 2.40234 L2.58797 5.33203 Z" />
    <path
       id="GlBitstreamVeraSans-Roman187"
       d="M0.942344 4.82906 L3.2325 6.87016 L3.2325 7.27047 L0.942344 9.31156 L0.942344 8.37891 L2.41219 7.07031 L0.942344 5.76172 L0.942344 4.82906 L0.942344 4.82906 Z M3.06156 4.82906 L5.35156 6.87016 L5.35156 7.27047 L3.06156 9.31156 L3.06156 8.37891 L4.53125 7.07031 L3.06156 5.76172 L3.06156 4.82906 Z" />
    <path
       id="GlBitstreamVeraSans-Roman80"
       d="M1.96781 3.52047 L1.96781 6.25969 L3.20797 6.25969 C3.20797 6.25969 3.89656 6.25969 4.2725 5.90328 C4.2725 5.90328 4.64844 5.54688 4.64844 4.88766 C4.64844 4.88766 4.64844 4.23344 4.2725 3.87703 C4.2725 3.87703 3.89656 3.52047 3.20797 3.52047 L1.96781 3.52047 L1.96781 3.52047 Z M0.981406 2.71 L3.20797 2.71 C3.20797 2.71 4.43359 2.71 5.06094 3.26422 C5.06094 3.26422 5.68844 3.81828 5.68844 4.88766 C5.68844 4.88766 5.68844 5.96672 5.06094 6.51859 C5.06094 6.51859 4.43359 7.07031 3.20797 7.07031 L1.96781 7.07031 L1.96781 10 L0.981406 10 L0.981406 2.71 Z" />
    <path
       id="GlBitstreamVeraSans-Roman111"
       d="M3.06156 5.16109 C3.06156 5.16109 2.33891 5.16109 1.91891 5.72516 C1.91891 5.72516 1.49906 6.28906 1.49906 7.27047 C1.49906 7.27047 1.49906 8.25188 1.91656 8.81594 C1.91656 8.81594 2.33406 9.37984 3.06156 9.37984 C3.06156 9.37984 3.77937 9.37984 4.19922 8.81344 C4.19922 8.81344 4.61922 8.24703 4.61922 7.27047 C4.61922 7.27047 4.61922 6.29875 4.19922 5.73 C4.19922 5.73 3.77937 5.16109 3.06156 5.16109 L3.06156 5.16109 Z M3.06156 4.39938 C3.06156 4.39938 4.23344 4.39938 4.90234 5.16109 C4.90234 5.16109 5.57125 5.92281 5.57125 7.27047 C5.57125 7.27047 5.57125 8.61328 4.90234 9.3775 C4.90234 9.3775 4.23344 10.1416 3.06156 10.1416 C3.06156 10.1416 1.88484 10.1416 1.21828 9.3775 C1.21828 9.3775 0.551719 8.61328 0.551719 7.27047 C0.551719 7.27047 0.551719 5.92281 1.21828 5.16109 C1.21828 5.16109 1.88484 4.39938 3.06156 4.39938 Z" />
    <path
       id="GlBitstreamVeraSans-Roman117"
       d="M0.849688 7.84172 L0.849688 4.53125 L1.74812 4.53125 L1.74812 7.80766 C1.74812 7.80766 1.74812 8.58391 2.05078 8.97219 C2.05078 8.97219 2.35359 9.36031 2.95906 9.36031 C2.95906 9.36031 3.68656 9.36031 4.10891 8.89656 C4.10891 8.89656 4.53125 8.43266 4.53125 7.63187 L4.53125 4.53125 L5.42969 4.53125 L5.42969 10 L4.53125 10 L4.53125 9.16016 C4.53125 9.16016 4.20406 9.65813 3.77188 9.89984 C3.77188 9.89984 3.33984 10.1416 2.76859 10.1416 C2.76859 10.1416 1.82625 10.1416 1.33797 9.55562 C1.33797 9.55562 0.849688 8.96969 0.849688 7.84172 Z" />
    <path
       id="GlBitstreamVeraSans-Roman114"
       d="M4.11141 5.37109 C4.11141 5.37109 3.96 5.28313 3.78172 5.24172 C3.78172 5.24172 3.60359 5.20016 3.38875 5.20016 C3.38875 5.20016 2.62703 5.20016 2.21922 5.69578 C2.21922 5.69578 1.81156 6.19141 1.81156 7.11906 L1.81156 10 L0.908281 10 L0.908281 4.53125 L1.81156 4.53125 L1.81156 5.38078 C1.81156 5.38078 2.09469 4.88281 2.54875 4.64109 C2.54875 4.64109 3.00297 4.39938 3.65234 4.39938 C3.65234 4.39938 3.74516 4.39938 3.85734 4.41156 C3.85734 4.41156 3.96969 4.42375 4.10641 4.44828 L4.11141 5.37109 Z" />
    <path
       id="GlBitstreamVeraSans-Roman108"
       d="M0.942344 2.40234 L1.84078 2.40234 L1.84078 10 L0.942344 10 L0.942344 2.40234 Z" />
    <path
       id="GlBitstreamVeraSans-Roman97"
       d="M3.42781 7.25094 C3.42781 7.25094 2.33891 7.25094 1.91891 7.5 C1.91891 7.5 1.49906 7.74906 1.49906 8.34953 C1.49906 8.34953 1.49906 8.82812 1.81391 9.10891 C1.81391 9.10891 2.12891 9.38969 2.67094 9.38969 C2.67094 9.38969 3.41797 9.38969 3.86953 8.85984 C3.86953 8.85984 4.32125 8.33 4.32125 7.45109 L4.32125 7.25094 L3.42781 7.25094 L3.42781 7.25094 Z M5.21969 6.87984 L5.21969 10 L4.32125 10 L4.32125 9.16984 C4.32125 9.16984 4.01375 9.66797 3.55469 9.90484 C3.55469 9.90484 3.09578 10.1416 2.43172 10.1416 C2.43172 10.1416 1.59187 10.1416 1.09625 9.67047 C1.09625 9.67047 0.600625 9.19922 0.600625 8.40813 C0.600625 8.40813 0.600625 7.48531 1.21828 7.01656 C1.21828 7.01656 1.83594 6.54781 3.06156 6.54781 L4.32125 6.54781 L4.32125 6.46 C4.32125 6.46 4.32125 5.83984 3.91359 5.50047 C3.91359 5.50047 3.50594 5.16109 2.76859 5.16109 C2.76859 5.16109 2.29984 5.16109 1.85547 5.27344 C1.85547 5.27344 1.41109 5.38578 1.00094 5.61031 L1.00094 4.78031 C1.00094 4.78031 1.49422 4.58984 1.95797 4.49469 C1.95797 4.49469 2.42188 4.39938 2.86141 4.39938 C2.86141 4.39938 4.04781 4.39938 4.63375 5.01469 C4.63375 5.01469 5.21969 5.62984 5.21969 6.87984 Z" />
    <path
       id="GlBitstreamVeraSans-Roman100"
       d="M4.54109 5.36125 L4.54109 2.40234 L5.43953 2.40234 L5.43953 10 L4.54109 10 L4.54109 9.17969 C4.54109 9.17969 4.25781 9.66797 3.82563 9.90484 C3.82563 9.90484 3.39359 10.1416 2.78812 10.1416 C2.78812 10.1416 1.79688 10.1416 1.17422 9.35063 C1.17422 9.35063 0.551719 8.55953 0.551719 7.27047 C0.551719 7.27047 0.551719 5.98141 1.17422 5.19047 C1.17422 5.19047 1.79688 4.39938 2.78812 4.39938 C2.78812 4.39938 3.39359 4.39938 3.82563 4.63625 C3.82563 4.63625 4.25781 4.87297 4.54109 5.36125 L4.54109 5.36125 Z M1.47953 7.27047 C1.47953 7.27047 1.47953 8.26172 1.88719 8.82578 C1.88719 8.82578 2.295 9.38969 3.00781 9.38969 C3.00781 9.38969 3.72078 9.38969 4.13094 8.82578 C4.13094 8.82578 4.54109 8.26172 4.54109 7.27047 C4.54109 7.27047 4.54109 6.27922 4.13094 5.71531 C4.13094 5.71531 3.72078 5.15141 3.00781 5.15141 C3.00781 5.15141 2.295 5.15141 1.88719 5.71531 C1.88719 5.71531 1.47953 6.27922 1.47953 7.27047 Z" />
    <path
       id="GlBitstreamVeraSans-Roman105"
       d="M0.942344 4.53125 L1.84078 4.53125 L1.84078 10 L0.942344 10 L0.942344 4.53125 L0.942344 4.53125 Z M0.942344 2.40234 L1.84078 2.40234 L1.84078 3.54 L0.942344 3.54 L0.942344 2.40234 Z" />
    <path
       id="GlBitstreamVeraSans-Roman102"
       d="M3.71094 2.40234 L3.71094 3.14938 L2.85156 3.14938 C2.85156 3.14938 2.36813 3.14938 2.18016 3.34469 C2.18016 3.34469 1.99219 3.54 1.99219 4.04781 L1.99219 4.53125 L3.47172 4.53125 L3.47172 5.22953 L1.99219 5.22953 L1.99219 10 L1.08891 10 L1.08891 5.22953 L0.229531 5.22953 L0.229531 4.53125 L1.08891 4.53125 L1.08891 4.15031 C1.08891 4.15031 1.08891 3.23734 1.51359 2.81984 C1.51359 2.81984 1.93844 2.40234 2.86141 2.40234 L3.71094 2.40234 Z" />
    <path
       id="GlBitstreamVeraSans-Roman115"
       d="M4.42875 4.69234 L4.42875 5.54203 C4.42875 5.54203 4.04781 5.34672 3.63766 5.24906 C3.63766 5.24906 3.2275 5.15141 2.78812 5.15141 C2.78812 5.15141 2.11922 5.15141 1.78469 5.35656 C1.78469 5.35656 1.45016 5.56156 1.45016 5.97172 C1.45016 5.97172 1.45016 6.28422 1.68938 6.4625 C1.68938 6.4625 1.92875 6.64062 2.65141 6.80172 L2.95906 6.87016 C2.95906 6.87016 3.91609 7.07516 4.31891 7.44875 C4.31891 7.44875 4.72172 7.82219 4.72172 8.49125 C4.72172 8.49125 4.72172 9.25297 4.11859 9.69734 C4.11859 9.69734 3.51562 10.1416 2.46094 10.1416 C2.46094 10.1416 2.02156 10.1416 1.54547 10.0561 C1.54547 10.0561 1.06937 9.97063 0.542031 9.79984 L0.542031 8.87203 C0.542031 8.87203 1.04 9.13078 1.52344 9.26031 C1.52344 9.26031 2.00687 9.38969 2.48047 9.38969 C2.48047 9.38969 3.11531 9.38969 3.45703 9.17234 C3.45703 9.17234 3.79891 8.955 3.79891 8.55953 C3.79891 8.55953 3.79891 8.19328 3.55219 7.99797 C3.55219 7.99797 3.30563 7.80266 2.47078 7.62203 L2.15828 7.54875 C2.15828 7.54875 1.32328 7.37297 0.952187 7.00922 C0.952187 7.00922 0.581094 6.64547 0.581094 6.01078 C0.581094 6.01078 0.581094 5.23922 1.12797 4.81937 C1.12797 4.81937 1.67484 4.39938 2.68063 4.39938 C2.68063 4.39938 3.17875 4.39938 3.61813 4.47266 C3.61813 4.47266 4.05766 4.54594 4.42875 4.69234 Z" />
    <path
       id="GlBitstreamVeraSans-Roman110"
       d="M5.48828 6.69922 L5.48828 10 L4.58984 10 L4.58984 6.72844 C4.58984 6.72844 4.58984 5.95219 4.28703 5.56641 C4.28703 5.56641 3.98438 5.18063 3.37891 5.18063 C3.37891 5.18063 2.65141 5.18063 2.23141 5.64453 C2.23141 5.64453 1.81156 6.10844 1.81156 6.90922 L1.81156 10 L0.908281 10 L0.908281 4.53125 L1.81156 4.53125 L1.81156 5.38078 C1.81156 5.38078 2.13375 4.88766 2.57078 4.64359 C2.57078 4.64359 3.00781 4.39938 3.57906 4.39938 C3.57906 4.39938 4.52156 4.39938 5.00484 4.98297 C5.00484 4.98297 5.48828 5.56641 5.48828 6.69922 Z" />
    <path
       id="GlBitstreamVeraSans-Roman101"
       d="M5.62016 7.04094 L5.62016 7.48047 L1.48922 7.48047 C1.48922 7.48047 1.54781 8.40813 2.04828 8.89406 C2.04828 8.89406 2.54891 9.37984 3.44234 9.37984 C3.44234 9.37984 3.96 9.37984 4.44578 9.25297 C4.44578 9.25297 4.93172 9.12594 5.41016 8.87203 L5.41016 9.72172 C5.41016 9.72172 4.92672 9.92672 4.41891 10.0341 C4.41891 10.0341 3.91109 10.1416 3.38875 10.1416 C3.38875 10.1416 2.08016 10.1416 1.31594 9.37984 C1.31594 9.37984 0.551719 8.61812 0.551719 7.31937 C0.551719 7.31937 0.551719 5.97656 1.27687 5.18797 C1.27687 5.18797 2.00203 4.39938 3.2325 4.39938 C3.2325 4.39938 4.33594 4.39938 4.97797 5.10984 C4.97797 5.10984 5.62016 5.82031 5.62016 7.04094 L5.62016 7.04094 Z M4.72172 6.77734 C4.72172 6.77734 4.71188 6.04 4.30906 5.60062 C4.30906 5.60062 3.90625 5.16109 3.24219 5.16109 C3.24219 5.16109 2.49031 5.16109 2.03859 5.58594 C2.03859 5.58594 1.58688 6.01078 1.51859 6.78219 L4.72172 6.77734 Z" />
    <path
       id="GlBitstreamVeraSans-Roman103"
       d="M4.54109 7.20219 C4.54109 7.20219 4.54109 6.22562 4.13813 5.68859 C4.13813 5.68859 3.73531 5.15141 3.00781 5.15141 C3.00781 5.15141 2.28516 5.15141 1.88234 5.68859 C1.88234 5.68859 1.47953 6.22562 1.47953 7.20219 C1.47953 7.20219 1.47953 8.17375 1.88234 8.71094 C1.88234 8.71094 2.28516 9.24797 3.00781 9.24797 C3.00781 9.24797 3.73531 9.24797 4.13813 8.71094 C4.13813 8.71094 4.54109 8.17375 4.54109 7.20219 L4.54109 7.20219 Z M5.43953 9.32125 C5.43953 9.32125 5.43953 10.7178 4.81937 11.3989 C4.81937 11.3989 4.19922 12.0802 2.92 12.0802 C2.92 12.0802 2.44625 12.0802 2.02625 12.0092 C2.02625 12.0092 1.60641 11.9384 1.21094 11.792 L1.21094 10.918 C1.21094 10.918 1.60641 11.1328 1.99219 11.2353 C1.99219 11.2353 2.37797 11.338 2.77828 11.338 C2.77828 11.338 3.66219 11.338 4.10156 10.8764 C4.10156 10.8764 4.54109 10.415 4.54109 9.48234 L4.54109 9.03813 C4.54109 9.03813 4.26266 9.52141 3.82812 9.76078 C3.82812 9.76078 3.39359 10 2.78812 10 C2.78812 10 1.78219 10 1.16688 9.23344 C1.16688 9.23344 0.551719 8.46672 0.551719 7.20219 C0.551719 7.20219 0.551719 5.93266 1.16688 5.16609 C1.16688 5.16609 1.78219 4.39938 2.78812 4.39938 C2.78812 4.39938 3.39359 4.39938 3.82812 4.63875 C3.82812 4.63875 4.26266 4.87797 4.54109 5.36125 L4.54109 4.53125 L5.43953 4.53125 L5.43953 9.32125 Z" />
    <path
       id="GlBitstreamVeraSans-Roman99"
       d="M4.87797 4.74125 L4.87797 5.58109 C4.87797 5.58109 4.49703 5.37109 4.11375 5.26609 C4.11375 5.26609 3.73047 5.16109 3.33984 5.16109 C3.33984 5.16109 2.46578 5.16109 1.98234 5.71531 C1.98234 5.71531 1.49906 6.26953 1.49906 7.27047 C1.49906 7.27047 1.49906 8.27141 1.98234 8.82563 C1.98234 8.82563 2.46578 9.37984 3.33984 9.37984 C3.33984 9.37984 3.73047 9.37984 4.11375 9.27484 C4.11375 9.27484 4.49703 9.16984 4.87797 8.96 L4.87797 9.79 C4.87797 9.79 4.50203 9.96578 4.09906 10.0536 C4.09906 10.0536 3.69625 10.1416 3.24219 10.1416 C3.24219 10.1416 2.00687 10.1416 1.27922 9.36531 C1.27922 9.36531 0.551719 8.58891 0.551719 7.27047 C0.551719 7.27047 0.551719 5.93266 1.28656 5.16609 C1.28656 5.16609 2.02156 4.39938 3.30078 4.39938 C3.30078 4.39938 3.71578 4.39938 4.11125 4.48484 C4.11125 4.48484 4.50687 4.57031 4.87797 4.74125 Z" />
    <path
       id="GlBitstreamVeraSans-Roman98"
       d="M4.86813 7.27047 C4.86813 7.27047 4.86813 6.27922 4.46047 5.71531 C4.46047 5.71531 4.05281 5.15141 3.33984 5.15141 C3.33984 5.15141 2.62703 5.15141 2.21922 5.71531 C2.21922 5.71531 1.81156 6.27922 1.81156 7.27047 C1.81156 7.27047 1.81156 8.26172 2.21922 8.82578 C2.21922 8.82578 2.62703 9.38969 3.33984 9.38969 C3.33984 9.38969 4.05281 9.38969 4.46047 8.82578 C4.46047 8.82578 4.86813 8.26172 4.86813 7.27047 L4.86813 7.27047 Z M1.81156 5.36125 C1.81156 5.36125 2.09469 4.87297 2.52687 4.63625 C2.52687 4.63625 2.95906 4.39938 3.55953 4.39938 C3.55953 4.39938 4.55563 4.39938 5.17813 5.19047 C5.17813 5.19047 5.80078 5.98141 5.80078 7.27047 C5.80078 7.27047 5.80078 8.55953 5.17813 9.35063 C5.17813 9.35063 4.55563 10.1416 3.55953 10.1416 C3.55953 10.1416 2.95906 10.1416 2.52687 9.90484 C2.52687 9.90484 2.09469 9.66797 1.81156 9.17969 L1.81156 10 L0.908281 10 L0.908281 2.40234 L1.81156 2.40234 L1.81156 5.36125 Z" />
    <path
       id="GlBitstreamVeraSans-Roman116"
       d="M1.83109 2.97844 L1.83109 4.53125 L3.68172 4.53125 L3.68172 5.22953 L1.83109 5.22953 L1.83109 8.19828 C1.83109 8.19828 1.83109 8.86719 2.01422 9.05766 C2.01422 9.05766 2.19734 9.24797 2.75875 9.24797 L3.68172 9.24797 L3.68172 10 L2.75875 10 C2.75875 10 1.71875 10 1.32328 9.61187 C1.32328 9.61187 0.927813 9.22359 0.927813 8.19828 L0.927813 5.22953 L0.268594 5.22953 L0.268594 4.53125 L0.927813 4.53125 L0.927813 2.97844 L1.83109 2.97844 Z" />
    <path
       id="GlBitstreamVeraSans-Roman118"
       d="M0.297812 4.53125 L1.25 4.53125 L2.95906 9.12109 L4.66797 4.53125 L5.62016 4.53125 L3.56937 10 L2.34859 10 L0.297812 4.53125 Z" />
    <path
       id="GlBitstreamVeraSans-Roman8217"
       d="M1.26953 2.71 L2.29984 2.71 L2.29984 3.45219 L1.49906 5.00969 L0.869219 5.00969 L1.26953 3.45219 L1.26953 2.71 Z" />
    <path
       id="GlBitstreamVeraSans-Roman112"
       d="M1.81156 9.17969 L1.81156 12.0802 L0.908281 12.0802 L0.908281 4.53125 L1.81156 4.53125 L1.81156 5.36125 C1.81156 5.36125 2.09469 4.87297 2.52687 4.63625 C2.52687 4.63625 2.95906 4.39938 3.55953 4.39938 C3.55953 4.39938 4.55563 4.39938 5.17813 5.19047 C5.17813 5.19047 5.80078 5.98141 5.80078 7.27047 C5.80078 7.27047 5.80078 8.55953 5.17813 9.35063 C5.17813 9.35063 4.55563 10.1416 3.55953 10.1416 C3.55953 10.1416 2.95906 10.1416 2.52687 9.90484 C2.52687 9.90484 2.09469 9.66797 1.81156 9.17969 L1.81156 9.17969 Z M4.86813 7.27047 C4.86813 7.27047 4.86813 6.27922 4.46047 5.71531 C4.46047 5.71531 4.05281 5.15141 3.33984 5.15141 C3.33984 5.15141 2.62703 5.15141 2.21922 5.71531 C2.21922 5.71531 1.81156 6.27922 1.81156 7.27047 C1.81156 7.27047 1.81156 8.26172 2.21922 8.82578 C2.21922 8.82578 2.62703 9.38969 3.33984 9.38969 C3.33984 9.38969 4.05281 9.38969 4.46047 8.82578 C4.46047 8.82578 4.86813 8.26172 4.86813 7.27047 Z" />
    <path
       id="GlBitstreamVeraSans-Roman233"
       d="M5.62016 7.04094 L5.62016 7.48047 L1.48922 7.48047 C1.48922 7.48047 1.54781 8.40813 2.04828 8.89406 C2.04828 8.89406 2.54891 9.37984 3.44234 9.37984 C3.44234 9.37984 3.96 9.37984 4.44578 9.25297 C4.44578 9.25297 4.93172 9.12594 5.41016 8.87203 L5.41016 9.72172 C5.41016 9.72172 4.92672 9.92672 4.41891 10.0341 C4.41891 10.0341 3.91109 10.1416 3.38875 10.1416 C3.38875 10.1416 2.08016 10.1416 1.31594 9.37984 C1.31594 9.37984 0.551719 8.61812 0.551719 7.31937 C0.551719 7.31937 0.551719 5.97656 1.27687 5.18797 C1.27687 5.18797 2.00203 4.39938 3.2325 4.39938 C3.2325 4.39938 4.33594 4.39938 4.97797 5.10984 C4.97797 5.10984 5.62016 5.82031 5.62016 7.04094 L5.62016 7.04094 Z M4.72172 6.77734 C4.72172 6.77734 4.71188 6.04 4.30906 5.60062 C4.30906 5.60062 3.90625 5.16109 3.24219 5.16109 C3.24219 5.16109 2.49031 5.16109 2.03859 5.58594 C2.03859 5.58594 1.58688 6.01078 1.51859 6.78219 L4.72172 6.77734 L4.72172 6.77734 Z M3.85875 2.00188 L4.83047 2.00188 L3.23859 3.83781 L2.49156 3.83781 L3.85875 2.00188 Z" />
    <path
       id="GlBitstreamVeraSans-Roman104"
       d="M5.48828 6.69922 L5.48828 10 L4.58984 10 L4.58984 6.72844 C4.58984 6.72844 4.58984 5.95219 4.28703 5.56641 C4.28703 5.56641 3.98438 5.18063 3.37891 5.18063 C3.37891 5.18063 2.65141 5.18063 2.23141 5.64453 C2.23141 5.64453 1.81156 6.10844 1.81156 6.90922 L1.81156 10 L0.908281 10 L0.908281 2.40234 L1.81156 2.40234 L1.81156 5.38078 C1.81156 5.38078 2.13375 4.88766 2.57078 4.64359 C2.57078 4.64359 3.00781 4.39938 3.57906 4.39938 C3.57906 4.39938 4.52156 4.39938 5.00484 4.98297 C5.00484 4.98297 5.48828 5.56641 5.48828 6.69922 Z" />
    <path
       id="GlBitstreamVeraSans-Roman121"
       d="M3.21781 10.5078 C3.21781 10.5078 2.83688 11.4844 2.47547 11.7822 C2.47547 11.7822 2.11422 12.0802 1.50875 12.0802 L0.791094 12.0802 L0.791094 11.3281 L1.31844 11.3281 C1.31844 11.3281 1.68953 11.3281 1.89453 11.1523 C1.89453 11.1523 2.09969 10.9766 2.34859 10.3223 L2.50984 9.91203 L0.297812 4.53125 L1.25 4.53125 L2.95906 8.80859 L4.66797 4.53125 L5.62016 4.53125 L3.21781 10.5078 Z" />
    <path
       id="GlBitstreamVeraSans-Roman232"
       d="M5.62016 7.04094 L5.62016 7.48047 L1.48922 7.48047 C1.48922 7.48047 1.54781 8.40813 2.04828 8.89406 C2.04828 8.89406 2.54891 9.37984 3.44234 9.37984 C3.44234 9.37984 3.96 9.37984 4.44578 9.25297 C4.44578 9.25297 4.93172 9.12594 5.41016 8.87203 L5.41016 9.72172 C5.41016 9.72172 4.92672 9.92672 4.41891 10.0341 C4.41891 10.0341 3.91109 10.1416 3.38875 10.1416 C3.38875 10.1416 2.08016 10.1416 1.31594 9.37984 C1.31594 9.37984 0.551719 8.61812 0.551719 7.31937 C0.551719 7.31937 0.551719 5.97656 1.27687 5.18797 C1.27687 5.18797 2.00203 4.39938 3.2325 4.39938 C3.2325 4.39938 4.33594 4.39938 4.97797 5.10984 C4.97797 5.10984 5.62016 5.82031 5.62016 7.04094 L5.62016 7.04094 Z M4.72172 6.77734 C4.72172 6.77734 4.71188 6.04 4.30906 5.60062 C4.30906 5.60062 3.90625 5.16109 3.24219 5.16109 C3.24219 5.16109 2.49031 5.16109 2.03859 5.58594 C2.03859 5.58594 1.58688 6.01078 1.51859 6.78219 L4.72172 6.77734 L4.72172 6.77734 Z M2.47203 2.00188 L3.84891 3.82812 L3.10188 3.82812 L1.51016 2.00188 L2.47203 2.00188 Z" />
    <path
       id="GlBitstreamVeraSans-Roman109"
       d="M5.20016 5.58109 C5.20016 5.58109 5.53719 4.97562 6.00594 4.6875 C6.00594 4.6875 6.47469 4.39938 7.10938 4.39938 C7.10938 4.39938 7.96391 4.39938 8.42766 4.9975 C8.42766 4.9975 8.89156 5.59563 8.89156 6.69922 L8.89156 10 L7.98828 10 L7.98828 6.72844 C7.98828 6.72844 7.98828 5.94234 7.71 5.56156 C7.71 5.56156 7.43172 5.18063 6.86031 5.18063 C6.86031 5.18063 6.16219 5.18063 5.75687 5.64453 C5.75687 5.64453 5.35156 6.10844 5.35156 6.90922 L5.35156 10 L4.44828 10 L4.44828 6.72844 C4.44828 6.72844 4.44828 5.9375 4.16984 5.55906 C4.16984 5.55906 3.89156 5.18063 3.31062 5.18063 C3.31062 5.18063 2.62203 5.18063 2.21672 5.64703 C2.21672 5.64703 1.81156 6.11328 1.81156 6.90922 L1.81156 10 L0.908281 10 L0.908281 4.53125 L1.81156 4.53125 L1.81156 5.38078 C1.81156 5.38078 2.11922 4.87797 2.54891 4.63875 C2.54891 4.63875 2.97859 4.39938 3.56937 4.39938 C3.56937 4.39938 4.165 4.39938 4.5825 4.70219 C4.5825 4.70219 5 5.00484 5.20016 5.58109 Z" />
    <path
       id="GlBitstreamVeraSans-Roman113"
       d="M1.47953 7.27047 C1.47953 7.27047 1.47953 8.26172 1.88719 8.82578 C1.88719 8.82578 2.295 9.38969 3.00781 9.38969 C3.00781 9.38969 3.72078 9.38969 4.13094 8.82578 C4.13094 8.82578 4.54109 8.26172 4.54109 7.27047 C4.54109 7.27047 4.54109 6.27922 4.13094 5.71531 C4.13094 5.71531 3.72078 5.15141 3.00781 5.15141 C3.00781 5.15141 2.295 5.15141 1.88719 5.71531 C1.88719 5.71531 1.47953 6.27922 1.47953 7.27047 L1.47953 7.27047 Z M4.54109 9.17969 C4.54109 9.17969 4.25781 9.66797 3.82563 9.90484 C3.82563 9.90484 3.39359 10.1416 2.78812 10.1416 C2.78812 10.1416 1.79688 10.1416 1.17422 9.35063 C1.17422 9.35063 0.551719 8.55953 0.551719 7.27047 C0.551719 7.27047 0.551719 5.98141 1.17422 5.19047 C1.17422 5.19047 1.79688 4.39938 2.78812 4.39938 C2.78812 4.39938 3.39359 4.39938 3.82563 4.63625 C3.82563 4.63625 4.25781 4.87297 4.54109 5.36125 L4.54109 4.53125 L5.43953 4.53125 L5.43953 12.0802 L4.54109 12.0802 L4.54109 9.17969 Z" />
    <path
       id="GlBitstreamVeraSans-Bold67"
       d="M6.69922 9.59953 C6.69922 9.59953 6.18172 9.86812 5.62016 10.0048 C5.62016 10.0048 5.05859 10.1416 4.44828 10.1416 C4.44828 10.1416 2.62703 10.1416 1.5625 9.12359 C1.5625 9.12359 0.498125 8.10547 0.498125 6.36234 C0.498125 6.36234 0.498125 4.61422 1.5625 3.59625 C1.5625 3.59625 2.62703 2.57812 4.44828 2.57812 C4.44828 2.57812 5.05859 2.57812 5.62016 2.71484 C5.62016 2.71484 6.18172 2.85156 6.69922 3.12016 L6.69922 4.62891 C6.69922 4.62891 6.17672 4.2725 5.66891 4.10656 C5.66891 4.10656 5.16109 3.94047 4.59969 3.94047 C4.59969 3.94047 3.59375 3.94047 3.0175 4.585 C3.0175 4.585 2.44141 5.22953 2.44141 6.36234 C2.44141 6.36234 2.44141 7.49016 3.0175 8.13469 C3.0175 8.13469 3.59375 8.77922 4.59969 8.77922 C4.59969 8.77922 5.16109 8.77922 5.66891 8.61328 C5.66891 8.61328 6.17672 8.44719 6.69922 8.09078 L6.69922 9.59953 Z" />
    <path
       id="GlBitstreamVeraSans-Bold118"
       d="M0.151406 4.53125 L1.89938 4.53125 L3.26172 8.31047 L4.61922 4.53125 L6.37203 4.53125 L4.21875 10 L2.29984 10 L0.151406 4.53125 Z" />
    <path
       id="GlBitstreamVeraSans-Bold8217"
       d="M1.11813 2.71 L2.77828 2.71 L2.77828 4.10156 L1.67 5.82031 L0.629844 5.82031 L1.11813 4.10156 L1.11813 2.71 Z" />
    <path
       id="GlBitstreamVeraSans-Bold233"
       d="M6.29891 7.25094 L6.29891 7.74906 L2.21188 7.74906 C2.21188 7.74906 2.27547 8.36422 2.65625 8.67188 C2.65625 8.67188 3.03719 8.97953 3.72078 8.97953 C3.72078 8.97953 4.2725 8.97953 4.85109 8.81594 C4.85109 8.81594 5.42969 8.65234 6.04 8.32031 L6.04 9.66797 C6.04 9.66797 5.42 9.90234 4.79984 10.0219 C4.79984 10.0219 4.17969 10.1416 3.55953 10.1416 C3.55953 10.1416 2.07516 10.1416 1.25234 9.38719 C1.25234 9.38719 0.429688 8.63281 0.429688 7.27047 C0.429688 7.27047 0.429688 5.93266 1.23781 5.16609 C1.23781 5.16609 2.04594 4.39938 3.46188 4.39938 C3.46188 4.39938 4.75094 4.39938 5.52484 5.17578 C5.52484 5.17578 6.29891 5.95219 6.29891 7.25094 L6.29891 7.25094 Z M4.50203 6.66984 C4.50203 6.66984 4.50203 6.17188 4.21141 5.86672 C4.21141 5.86672 3.92094 5.56156 3.45219 5.56156 C3.45219 5.56156 2.94437 5.56156 2.62688 5.84719 C2.62688 5.84719 2.30953 6.13281 2.23141 6.66984 L4.50203 6.66984 L4.50203 6.66984 Z M4.21922 2.00188 L5.60109 2.00188 L3.79922 3.83781 L2.84219 3.83781 L4.21922 2.00188 Z" />
    <path
       id="GlBitstreamVeraSans-Bold234"
       d="M6.29891 7.25094 L6.29891 7.74906 L2.21188 7.74906 C2.21188 7.74906 2.27547 8.36422 2.65625 8.67188 C2.65625 8.67188 3.03719 8.97953 3.72078 8.97953 C3.72078 8.97953 4.2725 8.97953 4.85109 8.81594 C4.85109 8.81594 5.42969 8.65234 6.04 8.32031 L6.04 9.66797 C6.04 9.66797 5.42 9.90234 4.79984 10.0219 C4.79984 10.0219 4.17969 10.1416 3.55953 10.1416 C3.55953 10.1416 2.07516 10.1416 1.25234 9.38719 C1.25234 9.38719 0.429688 8.63281 0.429688 7.27047 C0.429688 7.27047 0.429688 5.93266 1.23781 5.16609 C1.23781 5.16609 2.04594 4.39938 3.46188 4.39938 C3.46188 4.39938 4.75094 4.39938 5.52484 5.17578 C5.52484 5.17578 6.29891 5.95219 6.29891 7.25094 L6.29891 7.25094 Z M4.50203 6.66984 C4.50203 6.66984 4.50203 6.17188 4.21141 5.86672 C4.21141 5.86672 3.92094 5.56156 3.45219 5.56156 C3.45219 5.56156 2.94437 5.56156 2.62688 5.84719 C2.62688 5.84719 2.30953 6.13281 2.23141 6.66984 L4.50203 6.66984 L4.50203 6.66984 Z M2.96922 2.00188 L4.15078 2.00188 L5.40078 3.83781 L4.53172 3.83781 L3.56 2.73922 L2.58828 3.83781 L1.71922 3.83781 L2.96922 2.00188 Z" />
    <path
       id="GlBitstreamVeraSans-Bold63"
       d="M3.46188 7.53906 L1.69922 7.53906 L1.69922 7.29984 C1.69922 7.29984 1.69922 6.89938 1.86031 6.58938 C1.86031 6.58938 2.02156 6.27922 2.53906 5.80078 L2.85156 5.5175 C2.85156 5.5175 3.12984 5.26359 3.25922 5.03906 C3.25922 5.03906 3.38875 4.81438 3.38875 4.58984 C3.38875 4.58984 3.38875 4.24797 3.15437 4.05516 C3.15437 4.05516 2.92 3.86234 2.5 3.86234 C2.5 3.86234 2.10453 3.86234 1.64547 4.02594 C1.64547 4.02594 1.18656 4.18938 0.688438 4.51172 L0.688438 2.97844 C0.688438 2.97844 1.27937 2.77344 1.76766 2.67578 C1.76766 2.67578 2.25594 2.57812 2.71 2.57812 C2.71 2.57812 3.90141 2.57812 4.52641 3.06406 C4.52641 3.06406 5.15141 3.54984 5.15141 4.48234 C5.15141 4.48234 5.15141 4.96094 4.96094 5.33937 C4.96094 5.33937 4.77047 5.71781 4.31156 6.15234 L3.99906 6.43063 C3.99906 6.43063 3.66703 6.73344 3.56438 6.91656 C3.56438 6.91656 3.46188 7.09953 3.46188 7.31937 L3.46188 7.53906 L3.46188 7.53906 Z M1.69922 8.26172 L3.46188 8.26172 L3.46188 10 L1.69922 10 L1.69922 8.26172 Z" />
    <path
       id="GlBitstreamVeraSans-Roman78"
       d="M0.981406 2.71 L2.30953 2.71 L5.54203 8.80859 L5.54203 2.71 L6.49906 2.71 L6.49906 10 L5.17094 10 L1.93844 3.90141 L1.93844 10 L0.981406 10 L0.981406 2.71 Z" />
    <path
       id="GlBitstreamVeraSans-Roman122"
       d="M0.551719 4.53125 L4.81937 4.53125 L4.81937 5.35156 L1.44047 9.28219 L4.81937 9.28219 L4.81937 10 L0.429688 10 L0.429688 9.17969 L3.80859 5.24906 L0.551719 5.24906 L0.551719 4.53125 Z" />
    <path
       id="GlBitstreamVeraSans-Roman224"
       d="M3.42781 7.25094 C3.42781 7.25094 2.33891 7.25094 1.91891 7.5 C1.91891 7.5 1.49906 7.74906 1.49906 8.34953 C1.49906 8.34953 1.49906 8.82812 1.81391 9.10891 C1.81391 9.10891 2.12891 9.38969 2.67094 9.38969 C2.67094 9.38969 3.41797 9.38969 3.86953 8.85984 C3.86953 8.85984 4.32125 8.33 4.32125 7.45109 L4.32125 7.25094 L3.42781 7.25094 L3.42781 7.25094 Z M5.21969 6.87984 L5.21969 10 L4.32125 10 L4.32125 9.16984 C4.32125 9.16984 4.01375 9.66797 3.55469 9.90484 C3.55469 9.90484 3.09578 10.1416 2.43172 10.1416 C2.43172 10.1416 1.59187 10.1416 1.09625 9.67047 C1.09625 9.67047 0.600625 9.19922 0.600625 8.40813 C0.600625 8.40813 0.600625 7.48531 1.21828 7.01656 C1.21828 7.01656 1.83594 6.54781 3.06156 6.54781 L4.32125 6.54781 L4.32125 6.46 C4.32125 6.46 4.32125 5.83984 3.91359 5.50047 C3.91359 5.50047 3.50594 5.16109 2.76859 5.16109 C2.76859 5.16109 2.29984 5.16109 1.85547 5.27344 C1.85547 5.27344 1.41109 5.38578 1.00094 5.61031 L1.00094 4.78031 C1.00094 4.78031 1.49422 4.58984 1.95797 4.49469 C1.95797 4.49469 2.42188 4.39938 2.86141 4.39938 C2.86141 4.39938 4.04781 4.39938 4.63375 5.01469 C4.63375 5.01469 5.21969 5.62984 5.21969 6.87984 L5.21969 6.87984 Z M2.19203 2.00188 L3.56891 3.82812 L2.82187 3.82812 L1.23016 2.00188 L2.19203 2.00188 Z" />
    <path
       id="GlBitstreamVeraSans-Roman106"
       d="M0.942344 4.53125 L1.84078 4.53125 L1.84078 10.0977 C1.84078 10.0977 1.84078 11.1427 1.44281 11.6114 C1.44281 11.6114 1.045 12.0802 0.161094 12.0802 L-0.180625 12.0802 L-0.180625 11.3184 L0.0585938 11.3184 C0.0585938 11.3184 0.57125 11.3184 0.756719 11.0816 C0.756719 11.0816 0.942344 10.8447 0.942344 10.0977 L0.942344 4.53125 L0.942344 4.53125 Z M0.942344 2.40234 L1.84078 2.40234 L1.84078 3.54 L0.942344 3.54 L0.942344 2.40234 Z" />
    <path
       id="GlBitstreamVeraSans-Roman238"
       d="M0.942344 4.53125 L1.84078 4.53125 L1.84078 10 L0.942344 10 L0.942344 4.53125 L0.942344 4.53125 Z M1.02875 2.00188 L1.75141 2.00188 L2.94766 3.83781 L2.26891 3.83781 L1.39 2.64156 L0.511094 3.83781 L-0.167656 3.83781 L1.02875 2.00188 Z" />
    <path
       id="GlBitstreamVeraSans-Roman46"
       d="M1.06937 8.75969 L2.09969 8.75969 L2.09969 10 L1.06937 10 L1.06937 8.75969 Z" />
    <path
       id="GlBitstreamVeraSans-Bold119"
       d="M0.351562 4.53125 L2.05078 4.53125 L2.96875 8.30078 L3.89156 4.53125 L5.35156 4.53125 L6.26953 8.26172 L7.19234 4.53125 L8.89156 4.53125 L7.45125 10 L5.54203 10 L4.61922 6.24016 L3.70125 10 L1.79203 10 L0.351562 4.53125 Z" />
    <path
       id="GlBitstreamVeraSans-Bold46"
       d="M1.02047 8.11031 L2.77828 8.11031 L2.77828 10 L1.02047 10 L1.02047 8.11031 Z" />
    <path
       id="GlBitstreamVeraSans-Bold102"
       d="M4.43844 2.40234 L4.43844 3.54984 L3.47172 3.54984 C3.47172 3.54984 3.10062 3.54984 2.95406 3.68406 C2.95406 3.68406 2.80766 3.81828 2.80766 4.15031 L2.80766 4.53125 L4.30172 4.53125 L4.30172 5.78125 L2.80766 5.78125 L2.80766 10 L1.05953 10 L1.05953 5.78125 L0.190469 5.78125 L0.190469 4.53125 L1.05953 4.53125 L1.05953 4.15031 C1.05953 4.15031 1.05953 3.25687 1.5575 2.82969 C1.5575 2.82969 2.05563 2.40234 3.10062 2.40234 L4.43844 2.40234 Z" />
    <radialGradient
       inkscape:collect="always"
       xlink:href="#Grad0"
       id="radialGradient13000"
       gradientUnits="userSpaceOnUse"
       cx="232.162"
       cy="227.489"
       r="173.143"
       gradientTransform="translate(222.141,151.373)" />
  </defs>
  <path
     inkscape:connector-curvature="0"
     id="path11592"
     d="m 568.399,324.515 c 0.028,-95.6157 -77.486,-173.142 -173.116,-173.142 -95.6275,0 -173.142,77.5263 -173.11506,173.142 -0.0269,95.616 77.48756,173.144 173.11506,173.144 95.63,0 173.144,-77.528 173.116,-173.144 z"
     style="fill:url(#radialGradient13000);fill-rule:evenodd;stroke:none" />
  <path
     inkscape:connector-curvature="0"
     id="path11594"
     d="m 568.399,324.515 c 0.028,-95.6157 -77.486,-173.142 -173.116,-173.142 -95.6275,0 -173.142,77.5263 -173.11506,173.142 -0.0269,95.616 77.48756,173.144 173.11506,173.144 95.63,0 173.144,-77.528 173.116,-173.144 z"
     style="fill:none;stroke:#336699;stroke-width:5.81722021;stroke-linecap:butt;stroke-linejoin:miter;stroke-dasharray:none" />
  <path
     inkscape:connector-curvature="0"
     id="path11596"
     d="m 310.2472,352.491 4.5065,15.0355 14.8715,0 -24.185,-74.6975 -16.0733,0 -24.7859,74.6975 14.7213,0 4.6567,-15.0355 26.2882,0 0,0 z m -4.0559,-12.7961 -18.1764,0 9.1633,-29.1112 9.0131,29.1112 z"
     style="fill:#ffffff;fill-rule:evenodd;stroke:none" />
  <path
     inkscape:connector-curvature="0"
     id="path11598"
     d="m 352.9219,335.3762 30.7947,0 0,-12.7962 -30.7947,0 0,-16.9549 34.8504,0 0,-12.7961 -49.2713,0 0,74.6975 14.4209,0 0,-32.1503 z"
     style="fill:#ffffff;fill-rule:evenodd;stroke:none" />
  <path
     inkscape:connector-curvature="0"
     id="path11600"
     d="m 438.7007,292.829 0,50.7048 c 0,8.9572 -4.3564,13.2759 -13.3695,13.2759 -9.1633,0 -13.3693,-4.3187 -13.3693,-13.2759 l 0,-50.7048 -14.4209,0 0,50.7048 c 0,8.3173 2.10305,14.2356 6.75979,18.7143 5.10741,4.9585 12.46801,7.6777 21.03041,7.6777 8.4122,0 15.7729,-2.7192 20.8803,-7.6777 4.6567,-4.4787 6.91,-10.397 6.91,-18.7143 l 0,-50.7048 -14.4208,0 z"
     style="fill:#ffffff;fill-rule:evenodd;stroke:none" />
  <path
     inkscape:connector-curvature="0"
     id="path11602"
     d="m 481.6749,292.829 -14.4209,0 0,74.6975 48.0696,0 0,-12.7962 -33.6487,0 0,-61.9013 z"
     style="fill:#ffffff;fill-rule:evenodd;stroke:none" />
  <path
     inkscape:connector-curvature="0"
     id="path11604"
     d="m 301.2762,346.099 4.5065,15.0355 14.8715,0 -24.185,-74.6975 -16.0733,0 -24.7859,74.6975 14.7213,0 4.6567,-15.0355 26.2882,0 0,0 z m -4.0559,-12.7961 -18.1764,0 9.1633,-29.1112 9.0131,29.1112 z"
     style="fill:#161413;fill-rule:evenodd;stroke:none" />
  <path
     inkscape:connector-curvature="0"
     id="path11606"
     d="m 343.9519,328.9842 30.7947,0 0,-12.7962 -30.7947,0 0,-16.9549 34.8504,0 0,-12.7961 -49.2713,0 0,74.6975 14.4209,0 0,-32.1503 z"
     style="fill:#161413;fill-rule:evenodd;stroke:none" />
  <path
     inkscape:connector-curvature="0"
     id="path11608"
     d="m 429.7307,286.437 0,50.7048 c 0,8.9572 -4.3564,13.2759 -13.3695,13.2759 -9.1633,0 -13.3693,-4.3187 -13.3693,-13.2759 l 0,-50.7048 -14.4209,0 0,50.7048 c 0,8.3173 2.10305,14.2356 6.75979,18.7143 5.10741,4.9585 12.46801,7.6777 21.03041,7.6777 8.4122,0 15.7729,-2.7192 20.8803,-7.6777 4.6567,-4.4787 6.91,-10.397 6.91,-18.7143 l 0,-50.7048 -14.4208,0 z"
     style="fill:#161413;fill-rule:evenodd;stroke:none" />
  <path
     inkscape:connector-curvature="0"
     id="path11610"
     d="m 472.7049,286.437 -14.4209,0 0,74.6975 48.0696,0 0,-12.7962 -33.6487,0 0,-61.9013 z"
     style="fill:#161413;fill-rule:evenodd;stroke:none" />
  <path
     inkscape:connector-curvature="0"
     id="path11612"
     d="m 386.61295,518.818 7.36621,0.021 -0.084,28.567 -7.3662,-0.022 0.084,-28.566 z m 11.65265,0.294 8.1846,-0.837 12.3283,18.435 -1.9931,-19.492 6.9475,-0.71 2.9059,28.417 -8.1847,0.837 -12.3284,-18.434 1.9931,19.492 -6.9473,0.71 -2.9059,-28.418 z m 25.5415,-2.587 25.6051,-6.124 1.2951,5.415 -9.2113,2.203 5.3492,22.367 -7.1642,1.713 -5.3492,-22.367 -9.2296,2.207 -1.2951,-5.414 z m 25.9268,-6.433 18.6441,-6.897 1.9319,5.221 -11.7354,4.342 1.8456,4.988 11.0357,-4.082 1.932,5.221 -11.0357,4.084 2.2706,6.136 12.1302,-4.487 1.932,5.221 -19.0388,7.044 -9.9122,-26.791 z m 36.8461,-1.779 c 1.368,-0.715 2.213,-1.48 2.536,-2.296 0.333,-0.822 0.196,-1.815 -0.412,-2.98 -0.602,-1.153 -1.333,-1.821 -2.192,-2.007 -0.8477,-0.189 -1.9556,0.072 -3.3238,0.787 l -2.7475,1.434 3.3917,6.496 2.7476,-1.434 z m -0.3919,5.945 5.0039,9.584 -6.5301,3.408 -13.2217,-25.321 9.9726,-5.207 c 3.3356,-1.742 6.0702,-2.457 8.2032,-2.146 2.145,0.304 3.849,1.666 5.113,4.085 0.873,1.674 1.184,3.26 0.931,4.76 -0.242,1.493 -1.045,2.919 -2.407,4.278 0.999,-0.263 2.039,-0.215 3.118,0.143 1.084,0.339 2.369,1.05 3.854,2.13 l 7.299,5.341 -6.953,3.63 -6.373,-4.68 c -1.283,-0.942 -2.368,-1.476 -3.254,-1.603 -0.875,-0.133 -1.844,0.078 -2.907,0.634 l -1.8489,0.964 z m 21.8169,-28.233 c -1.824,1.308 -2.757,2.996 -2.797,5.065 -0.04,2.068 0.817,4.326 2.57,6.773 1.746,2.437 3.605,3.968 5.576,4.595 1.972,0.628 3.87,0.288 5.695,-1.019 1.835,-1.315 2.773,-3.008 2.813,-5.076 0.04,-2.069 -0.813,-4.321 -2.559,-6.757 -1.753,-2.448 -3.616,-3.985 -5.587,-4.612 -1.972,-0.628 -3.875,-0.283 -5.711,1.031 z m -3.109,-4.339 c 3.733,-2.674 7.422,-3.701 11.068,-3.081 3.645,0.621 6.816,2.813 9.513,6.577 2.69,3.753 3.742,7.456 3.157,11.106 -0.585,3.652 -2.743,6.815 -6.476,9.49 -3.722,2.667 -7.411,3.694 -11.067,3.082 -3.646,-0.622 -6.813,-2.808 -9.503,-6.562 -2.697,-3.764 -3.753,-7.471 -3.168,-11.122 0.595,-3.66 2.754,-6.822 6.476,-9.49 z m 13.371,-9.418 8.875,-8.409 c 2.639,-2.5 5.219,-3.829 7.741,-3.986 2.522,-0.176 4.81,0.819 6.863,2.986 2.061,2.175 2.94,4.523 2.638,7.041 -0.301,2.5 -1.772,5.001 -4.411,7.5 l -3.528,3.343 6.818,7.194 -5.348,5.067 -19.648,-20.736 z m 9.019,-1.191 5.488,5.791 2.958,-2.803 c 1.037,-0.983 1.601,-1.991 1.692,-3.026 0.083,-1.046 -0.315,-2.03 -1.192,-2.956 -0.878,-0.926 -1.836,-1.371 -2.874,-1.336 -1.039,0.035 -2.076,0.543 -3.113,1.526 l -2.959,2.804 z m 9.091,-16.361 12.653,-15.332 4.295,3.545 -7.966,9.65 4.103,3.386 7.491,-9.077 4.293,3.545 -7.489,9.075 5.046,4.165 8.233,-9.975 4.294,3.544 -12.922,15.657 -22.031,-18.183 z m 0.768,-13.134 3.447,-4.176 0.424,7.421 -2.387,2.892 -1.484,-6.137 z m 30.213,-6.92 c 0.825,-1.305 1.172,-2.39 1.041,-3.258 -0.124,-0.878 -0.741,-1.668 -1.851,-2.371 -1.1,-0.695 -2.068,-0.906 -2.903,-0.635 -0.829,0.26 -1.657,1.042 -2.48,2.348 l -1.658,2.619 6.195,3.917 1.656,-2.62 z m 2.645,5.34 9.136,5.778 -3.937,6.225 -24.144,-15.266 6.014,-9.509 c 2.011,-3.18 4.016,-5.172 6.018,-5.974 2.009,-0.813 4.165,-0.49 6.474,0.969 1.595,1.009 2.658,2.226 3.193,3.649 0.54,1.413 0.561,3.049 0.065,4.909 0.732,-0.729 1.655,-1.209 2.768,-1.442 1.108,-0.249 2.576,-0.28 4.403,-0.09 l 8.994,0.956 -4.193,6.63 -7.86,-0.85 c -1.583,-0.171 -2.789,-0.089 -3.62,0.246 -0.824,0.323 -1.555,0.992 -2.197,2.006 l -1.114,1.763 z m 23.403,-31.68 -4.794,10.473 3.976,3.819 -3.082,6.733 -21.571,-21.509 3.655,-7.986 30.377,2.268 -3.081,6.733 -5.48,-0.531 z m -8.848,6.598 3.257,-7.116 -11.959,-1.181 8.702,8.297 z m 5.101,-32.481 c 0.337,-1.111 0.348,-2.027 0.034,-2.749 -0.314,-0.721 -0.946,-1.227 -1.898,-1.516 -0.94,-0.285 -1.742,-0.215 -2.405,0.21 -0.673,0.422 -1.18,1.188 -1.516,2.299 l -1.184,3.899 5.785,1.757 1.184,-3.9 z m 12.027,3.391 c 0.43,-1.415 0.453,-2.568 0.07,-3.457 -0.379,-0.902 -1.174,-1.536 -2.382,-1.903 -1.183,-0.36 -2.176,-0.274 -2.977,0.256 -0.812,0.526 -1.435,1.503 -1.869,2.931 l -1.256,4.138 7.159,2.173 1.255,-4.138 z m -7.842,-9.538 c 0.899,-1.38 2.067,-2.306 3.502,-2.776 1.436,-0.471 3.014,-0.445 4.736,0.078 2.636,0.8 4.33,2.287 5.083,4.462 0.753,2.175 0.577,5.081 -0.526,8.718 l -3.551,11.699 -27.334,-8.298 3.212,-10.582 c 1.151,-3.796 2.56,-6.368 4.222,-7.716 1.665,-1.361 3.762,-1.657 6.288,-0.89 1.331,0.403 2.371,1.059 3.122,1.967 0.74,0.904 1.154,2.017 1.246,3.338 z m -10.818,-12.1236 1.431,-7.226 28.021,5.5472 -1.431,7.2264 -28.021,-5.5476 z m 2.371,-11.8856 0.792,-7.3234 22.865,2.4737 1.392,-12.8589 5.534,0.5987 -2.184,20.1825 -28.399,-3.0726 z m 1.989,-22.4068 0.153,-7.3647 28.561,0.5985 -0.155,7.3645 -28.559,-0.5983 z m 0.559,-8.626 -1.841,-26.2626 5.553,-0.3894 0.663,9.4476 22.941,-1.6089 0.516,7.3482 -22.941,1.6088 0.662,9.4668 -5.553,0.3895 z m -2.091,-26.6557 -3.738,-19.52486 5.469,-1.04667 2.353,12.28993 5.224,-0.9999 -2.213,-11.55706 5.469,-1.04667 2.212,11.55703 6.427,-1.2301 -2.432,-12.70333 5.469,-1.04667 3.815,19.9382 -28.055,5.3701 z m -9.626,-8.9693 -1.018,-5.3181 5.986,4.4062 0.705,3.6832 -5.673,-2.7713"
     style="fill:#336699;fill-rule:evenodd;stroke:none" />
  <g
     id="g13549">
    <g
       id="g13544">
      <g
         id="g13540">
        <g
           id="g13537">
          <path
             inkscape:connector-curvature="0"
             id="path11614"
             d="m 245.5277,483.084 -5.1852,-5.232 16.3352,-16.19 -9.1045,-9.187 3.9548,-3.918 14.2895,14.419 -20.2898,20.108 z m -19.0892,-20.404 -4.6081,-5.747 22.286,-17.869 4.608,5.746 -22.2859,17.87 z m -7.803,-29.74 c -0.6135,-0.984 -1.2951,-1.598 -2.0451,-1.837 -0.75,-0.239 -1.5474,-0.096 -2.392,0.43 -0.8337,0.519 -1.3088,1.168 -1.425,1.947 -0.1272,0.785 0.116,1.67 0.7295,2.656 l 2.1538,3.459 5.1327,-3.194 -2.1539,-3.461 z m 10.4749,-6.815 c -0.782,-1.255 -1.6338,-2.032 -2.5554,-2.329 -0.9282,-0.309 -1.9284,-0.13 -3.0003,0.537 -1.0504,0.655 -1.64,1.457 -1.7689,2.409 -0.1396,0.958 0.1851,2.071 0.9738,3.337 l 2.2853,3.672 6.3509,-3.954 -2.2854,-3.672 z m -12.3423,-0.384 c -0.4461,-1.586 -0.3732,-3.073 0.2187,-4.463 0.5921,-1.39 1.6514,-2.561 3.1782,-3.511 2.339,-1.456 4.5744,-1.751 6.7064,-0.885 2.132,0.866 4.2025,2.913 6.2115,6.139 l 6.4615,10.38 -24.2502,15.096 -5.8448,-9.387 c -2.0965,-3.368 -3.1043,-6.121 -3.0234,-8.259 0.074,-2.151 1.2318,-3.924 3.4733,-5.318 1.1803,-0.735 2.3592,-1.087 3.5369,-1.053 1.1666,0.04 2.2774,0.461 3.3319,1.261 z m -18.688,-6.771 -7.8375,-18.269 5.1168,-2.195 4.9333,11.499 4.8881,-2.097 -4.6391,-10.813 5.1168,-2.196 4.6391,10.814 6.0134,-2.579 -5.0992,-11.887 5.1167,-2.195 8.0034,18.655 -26.2518,11.263 z m -1.9252,-42.136 c -0.3943,-1.492 -0.9538,-2.486 -1.6782,-2.98 -0.7277,-0.507 -1.7266,-0.592 -2.9969,-0.257 -1.2579,0.332 -2.0717,0.897 -2.4415,1.694 -0.373,0.785 -0.3625,1.924 0.032,3.415 l 0.7919,2.997 7.0848,-1.872 -0.7921,-2.997 z m 5.7125,1.696 10.4512,-2.763 1.8824,7.122 -27.6173,7.3 -2.8748,-10.877 c -0.9615,-3.638 -1.0552,-6.462 -0.2809,-8.475 0.771,-2.024 2.4761,-3.386 5.1151,-4.082 1.8252,-0.484 3.4408,-0.435 4.847,0.144 1.403,0.564 2.6166,1.662 3.6409,3.292 -0.0355,-1.033 0.2402,-2.037 0.8273,-3.009 0.5717,-0.983 1.5486,-2.079 2.9308,-3.288 l 6.8211,-5.94 2.0046,7.584 -5.9728,5.181 c -1.2018,1.043 -1.9627,1.984 -2.2826,2.82 -0.323,0.825 -0.3314,1.815 -0.025,2.975 l 0.533,2.016 z m -22.3562,-16.655 -2.95832,-26.16 5.53242,-0.626 1.0643,9.41 22.8522,-2.584 0.8278,7.32 -22.8523,2.584 1.0663,9.43 -5.5324,0.626 z m -3.05082,-34.022 0.56997,-19.87 5.56545,0.159 -0.3588,12.508 5.3169,0.152 0.3373,-11.762 5.5655,0.159 -0.3374,11.763 6.5408,0.187 0.3708,-12.928 5.5655,0.16 -0.5821,20.291 -28.55392,-0.819 z M 169,317.016 l 0.15524,-5.412 4.89272,5.595 -0.10753,3.748 L 169,317.016 z m 25.5358,-30.107 2.5652,-11.739 5.4393,1.189 -2.5651,11.739 -5.4394,-1.189 z m -4.4052,-38.689 4.8536,-11.221 c 1.4431,-3.337 3.2931,-5.573 5.5495,-6.71 2.2499,-1.153 4.7446,-1.137 7.484,0.048 2.7512,1.19 4.4828,3.002 5.1948,5.437 0.7055,2.417 0.3366,5.294 -1.1066,8.631 l -1.9292,4.46 9.0963,3.935 -2.9243,6.761 -26.2181,-11.341 z m 7.8237,-4.641 7.3229,3.167 1.6179,-3.741 c 0.5671,-1.311 0.689,-2.46 0.3657,-3.448 -0.3349,-0.992 -1.0879,-1.742 -2.2585,-2.248 -1.1708,-0.506 -2.2266,-0.539 -3.1678,-0.099 -0.9411,0.441 -1.6952,1.317 -2.2623,2.628 l -1.6179,3.741 z m 6.0972,-25.218 10.5048,-16.877 4.7269,2.942 -6.6122,10.623 4.5156,2.811 6.218,-9.99 4.7268,2.942 -6.2179,9.99 5.5553,3.458 6.8347,-10.981 4.7269,2.943 -10.7272,17.234 -24.2517,-15.095 z m -0.9835,-13.12 2.8613,-4.597 1.4068,7.299 -1.9817,3.183 -2.2864,-5.885 z m 34.4806,-12.6063 c 1.003,-1.173 1.502,-2.198 1.4969,-3.0751 0.003,-0.8869 -0.4945,-1.7572 -1.4929,-2.6111 -0.9888,-0.8456 -1.9163,-1.1939 -2.7821,-1.0449 -0.8577,0.1393 -1.788,0.7955 -2.7912,1.9685 l -2.0145,2.3556 5.5693,4.7626 2.0145,-2.3556 z m 1.8534,5.6633 8.2158,7.026 -4.7876,5.598 -21.7097,-18.5653 7.3117,-8.5502 c 2.4457,-2.8597 4.7161,-4.5433 6.8115,-5.0507 2.1038,-0.517 4.1929,0.1115 6.2674,1.8855 1.4348,1.227 2.3142,2.5833 2.6382,4.0688 0.3323,1.4758 0.1197,3.0983 -0.6378,4.8673 0.8295,-0.6167 1.8114,-0.9602 2.9457,-1.0308 1.133,-0.0883 2.59,0.0919 4.3711,0.5409 l 8.7645,2.2334 -5.0984,5.9619 -7.658,-1.9671 c -1.5417,-0.3952 -2.7475,-0.4866 -3.6175,-0.2739 -0.8616,0.2031 -1.6822,0.7601 -2.4615,1.6713 l -1.3554,1.5849 z m 4.8594,-31.4895 15.035,-13.0051 3.6425,4.2111 -9.4638,8.1861 3.4796,4.0228 8.8995,-7.6979 3.6428,4.2109 -8.8998,7.698 4.2807,4.949 9.7821,-8.4616 3.642,4.2112 -15.3528,13.2803 -18.6878,-21.6048 z m 24.1678,-19.9868 6.9978,-4.3264 19.14,11.2008 -10.303,-16.6643 5.94,-3.6726 15.022,24.2968 -6.998,4.3266 -19.14,-11.201 10.303,16.6645 -5.94,3.6724 -15.0218,-24.2968 z m 32.7658,-18.9891 7.646,-3.0371 16.888,14.3734 -7.232,-18.2085 6.49,-2.578 10.544,26.5482 -7.645,3.0371 -16.888,-14.3734 7.232,18.2084 -6.49,2.5781 -10.545,-26.5482 z m 34.287,-12.2659 7.135,-1.8358 7.119,27.6645 -7.135,1.8357 -7.119,-27.6644 z m 13.883,-3.713 26.061,-3.73908 0.79,5.51128 -9.375,1.3451 3.266,22.7648 -7.291,1.0462 -3.266,-22.7649 -9.394,1.3479 -0.791,-5.5113 z m 33.915,-4.06601 19.878,-0.0244 0.008,5.56769 -12.513,0.0154 0.006,5.3189 11.766,-0.0144 0.008,5.5677 -11.768,0.0144 0.009,6.5435 12.934,-0.0157 0.006,5.5677 -20.299,0.0248 -0.035,-28.56561 z m 10.609,-7.78104 5.413,-0.007 -5.446,5.05782 -3.75,0.005 3.783,-5.05578"
             style="fill:#336699;fill-rule:evenodd;stroke:none" />
        </g>
      </g>
    </g>
  </g>
  <path
     inkscape:connector-curvature="0"
     id="path11616"
     d="m 377.278,170.62046 c -37.2393,4.08408 -73.847,21.97474 -100.952,52.84214 13.6271,0.6354 14.1406,0.7311 22.0595,0.8032 44.7391,-39.9953 101.8255,-46.02825 146.8675,-27.3667 49.338,19.222 84.724,69.216 85.994,122.2019 2.722,50.825 -26.028,101.386 -70.677,125.657 -45.47,25.796 -110.5586,25.266 -161.8724,-19.981 -11.9069,0.196 -15.85858,0.228 -21.64161,0.312 21.48781,27.359 60.84171,48.545 98.07331,52.872 49.8217,6.45 102.1217,-13.386 134.9007,-51.522 34.738,-38.563 47.124,-95.33 32.408,-145.006 -14.88,-53.1144 -60.41,-96.1537 -114.364,-107.80625 -16.632,-3.8516 -33.816,-4.52575 -50.796,-3.00629 z"
     style="fill:#ffffff;fill-rule:evenodd;stroke:none" />
  <path
     style="fill:none;stroke:none"
     d="m 147,1406 0,-893 136,0 0,893 -136,0 z"
     id="path12526"
     inkscape:connector-curvature="0" />
</svg>
